M48
;DRILL file {KiCad (5.0.0-3-g5ebb6b6)} date Tuesday, September 18, 2018 at 11:25:57 AM
;FORMAT={-:-/ absolute / inch / decimal}
FMAT,2
INCH,TZ
T1C0.0300
T2C0.0315
T3C0.0320
T4C0.0354
T5C0.0394
T6C0.0400
T7C0.0433
T8C0.1000
%
G90
G05
M72
T1
X6.3713Y-3.1106
X6.3713Y-3.1894
T2
X6.35Y-1.65
X6.35Y-1.95
X6.35Y-2.05
X6.35Y-2.35
T3
X5.1531Y-5.15
X5.1531Y-5.6421
X5.35Y-5.15
X5.35Y-5.6421
T4
X6.65Y-1.8
X6.75Y-1.8
X6.65Y-2.2
X6.75Y-2.2
T5
X6.8Y-3.95
X6.8Y-4.05
X6.8Y-4.15
X6.5Y-2.6
X6.5Y-2.7
X6.5Y-2.8
T6
X5.6Y-5.15
X5.6Y-5.75
X5.7Y-5.15
X5.7Y-5.75
X5.8Y-5.15
X5.8Y-5.75
X5.9Y-5.15
X5.9Y-5.75
X6.Y-5.15
X6.Y-5.75
X6.1Y-5.15
X6.1Y-5.75
X6.2Y-5.15
X6.2Y-5.75
X6.3Y-5.15
X6.3Y-5.75
X6.4Y-5.15
X6.4Y-5.75
X6.5Y-5.15
X6.5Y-5.75
X6.6Y-5.15
X6.6Y-5.75
X6.7Y-5.15
X6.7Y-5.75
X5.0965Y-5.009
X5.1965Y-5.009
X5.2965Y-5.009
X5.3965Y-5.009
X5.4965Y-5.009
X5.5965Y-5.009
X5.6965Y-5.009
X5.7965Y-5.009
X5.8965Y-5.009
X5.9965Y-5.009
X6.0965Y-5.009
X6.1965Y-5.009
X6.2965Y-5.009
X6.3965Y-5.009
X6.4965Y-5.009
X6.5965Y-5.009
T7
X6.8Y-4.65
X6.8Y-4.95
T8
X5.1477Y-3.4155
X6.5453Y-3.4155
T0
M30
