G04 #@! TF.GenerationSoftware,KiCad,Pcbnew,(5.0.0-3-g5ebb6b6)*
G04 #@! TF.CreationDate,2018-09-18T11:26:02-04:00*
G04 #@! TF.ProjectId,mapH,6D6170482E6B696361645F7063620000,rev?*
G04 #@! TF.SameCoordinates,Original*
G04 #@! TF.FileFunction,Copper,L2,Bot,Signal*
G04 #@! TF.FilePolarity,Positive*
%FSLAX46Y46*%
G04 Gerber Fmt 4.6, Leading zero omitted, Abs format (unit mm)*
G04 Created by KiCad (PCBNEW (5.0.0-3-g5ebb6b6)) date Tuesday, September 18, 2018 at 11:26:02 AM*
%MOMM*%
%LPD*%
G01*
G04 APERTURE LIST*
G04 #@! TA.AperFunction,ComponentPad*
%ADD10R,2.200000X2.200000*%
G04 #@! TD*
G04 #@! TA.AperFunction,ComponentPad*
%ADD11O,2.200000X2.200000*%
G04 #@! TD*
G04 #@! TA.AperFunction,ComponentPad*
%ADD12R,1.800000X1.800000*%
G04 #@! TD*
G04 #@! TA.AperFunction,ComponentPad*
%ADD13C,1.800000*%
G04 #@! TD*
G04 #@! TA.AperFunction,ComponentPad*
%ADD14C,1.524000*%
G04 #@! TD*
G04 #@! TA.AperFunction,ComponentPad*
%ADD15C,1.600000*%
G04 #@! TD*
G04 #@! TA.AperFunction,ComponentPad*
%ADD16O,1.600000X1.600000*%
G04 #@! TD*
G04 #@! TA.AperFunction,ComponentPad*
%ADD17O,1.727200X3.048000*%
G04 #@! TD*
G04 #@! TA.AperFunction,ComponentPad*
%ADD18C,3.810000*%
G04 #@! TD*
G04 #@! TA.AperFunction,WasherPad*
%ADD19C,4.000000*%
G04 #@! TD*
G04 #@! TA.AperFunction,ComponentPad*
%ADD20R,1.700000X1.700000*%
G04 #@! TD*
G04 #@! TA.AperFunction,ComponentPad*
%ADD21O,1.700000X1.700000*%
G04 #@! TD*
G04 #@! TA.AperFunction,Conductor*
%ADD22C,0.254000*%
G04 #@! TD*
G04 APERTURE END LIST*
D10*
G04 #@! TO.P,D1,1*
G04 #@! TO.N,Net-(D1-Pad1)*
X172720000Y-125730000D03*
D11*
G04 #@! TO.P,D1,2*
G04 #@! TO.N,BAT+*
X172720000Y-118110000D03*
G04 #@! TD*
D12*
G04 #@! TO.P,D2,1*
G04 #@! TO.N,GND*
X171450000Y-55880000D03*
D13*
G04 #@! TO.P,D2,2*
G04 #@! TO.N,Net-(D2-Pad2)*
X168910000Y-55880000D03*
G04 #@! TD*
D12*
G04 #@! TO.P,D3,1*
G04 #@! TO.N,GND*
X171450000Y-45720000D03*
D13*
G04 #@! TO.P,D3,2*
G04 #@! TO.N,Net-(D3-Pad2)*
X168910000Y-45720000D03*
G04 #@! TD*
D14*
G04 #@! TO.P,J2,2*
G04 #@! TO.N,GND*
X161830000Y-79010000D03*
G04 #@! TO.P,J2,1*
G04 #@! TO.N,Net-(J2-Pad1)*
X161830000Y-81010000D03*
G04 #@! TD*
D15*
G04 #@! TO.P,R1,1*
G04 #@! TO.N,Net-(D2-Pad2)*
X161290000Y-52070000D03*
D16*
G04 #@! TO.P,R1,2*
G04 #@! TO.N,Net-(R1-Pad2)*
X161290000Y-59690000D03*
G04 #@! TD*
D15*
G04 #@! TO.P,R2,1*
G04 #@! TO.N,Net-(D3-Pad2)*
X161290000Y-41910000D03*
D16*
G04 #@! TO.P,R2,2*
G04 #@! TO.N,Net-(R2-Pad2)*
X161290000Y-49530000D03*
G04 #@! TD*
D17*
G04 #@! TO.P,S2,1*
G04 #@! TO.N,INT0*
X135890000Y-143310000D03*
G04 #@! TO.P,S2,2*
G04 #@! TO.N,GND*
X130890000Y-143310000D03*
G04 #@! TO.P,S2,1*
G04 #@! TO.N,INT0*
X135890000Y-130810000D03*
G04 #@! TO.P,S2,2*
G04 #@! TO.N,GND*
X130890000Y-130810000D03*
G04 #@! TD*
D18*
G04 #@! TO.P,U1,18*
G04 #@! TO.N,N/C*
X166251100Y-86753600D03*
D14*
G04 #@! TO.P,U1,1*
G04 #@! TO.N,VCC*
X129451100Y-127228600D03*
G04 #@! TO.P,U1,2*
G04 #@! TO.N,BAT+*
X131991100Y-127228600D03*
G04 #@! TO.P,U1,3*
G04 #@! TO.N,GND*
X134531100Y-127228600D03*
G04 #@! TO.P,U1,4*
G04 #@! TO.N,VCC*
X137071100Y-127228600D03*
G04 #@! TO.P,U1,5*
G04 #@! TO.N,Net-(U1-Pad5)*
X139611100Y-127228600D03*
G04 #@! TO.P,U1,6*
G04 #@! TO.N,Net-(U1-Pad6)*
X142151100Y-127228600D03*
G04 #@! TO.P,U1,7*
G04 #@! TO.N,Net-(U1-Pad7)*
X144691100Y-127228600D03*
G04 #@! TO.P,U1,8*
G04 #@! TO.N,Net-(U1-Pad8)*
X147231100Y-127228600D03*
G04 #@! TO.P,U1,9*
G04 #@! TO.N,Net-(U1-Pad9)*
X149771100Y-127228600D03*
G04 #@! TO.P,U1,10*
G04 #@! TO.N,Net-(U1-Pad10)*
X152311100Y-127228600D03*
G04 #@! TO.P,U1,11*
G04 #@! TO.N,Net-(U1-Pad11)*
X154851100Y-127228600D03*
G04 #@! TO.P,U1,12*
G04 #@! TO.N,Net-(U1-Pad12)*
X157391100Y-127228600D03*
G04 #@! TO.P,U1,13*
G04 #@! TO.N,Net-(U1-Pad13)*
X159931100Y-127228600D03*
G04 #@! TO.P,U1,14*
G04 #@! TO.N,Net-(U1-Pad14)*
X162471100Y-127228600D03*
G04 #@! TO.P,U1,15*
G04 #@! TO.N,Net-(U1-Pad15)*
X165011100Y-127228600D03*
G04 #@! TO.P,U1,16*
G04 #@! TO.N,Net-(U1-Pad16)*
X167551100Y-127228600D03*
D18*
G04 #@! TO.P,U1,17*
G04 #@! TO.N,N/C*
X130751100Y-86753600D03*
G04 #@! TD*
D19*
G04 #@! TO.P,REF\002A\002A,*
G04 #@! TO.N,*
X130810000Y-80010000D03*
X155575000Y-80010000D03*
G04 #@! TD*
D20*
G04 #@! TO.P,J1,1*
G04 #@! TO.N,GND*
X165100000Y-66040000D03*
D21*
G04 #@! TO.P,J1,2*
G04 #@! TO.N,VCC*
X165100000Y-68580000D03*
G04 #@! TO.P,J1,3*
G04 #@! TO.N,Net-(J1-Pad3)*
X165100000Y-71120000D03*
G04 #@! TD*
D20*
G04 #@! TO.P,S1,1*
G04 #@! TO.N,BAT+*
X172720000Y-105410000D03*
D21*
G04 #@! TO.P,S1,2*
G04 #@! TO.N,Net-(J2-Pad1)*
X172720000Y-102870000D03*
G04 #@! TO.P,S1,3*
G04 #@! TO.N,Net-(S1-Pad3)*
X172720000Y-100330000D03*
G04 #@! TD*
D14*
G04 #@! TO.P,uP1,7*
G04 #@! TO.N,Net-(uP1-Pad7)*
X170180000Y-130810000D03*
G04 #@! TO.P,uP1,8*
G04 #@! TO.N,Net-(uP1-Pad8)*
X167640000Y-130810000D03*
G04 #@! TO.P,uP1,9*
G04 #@! TO.N,Net-(uP1-Pad9)*
X165100000Y-130810000D03*
G04 #@! TO.P,uP1,10*
G04 #@! TO.N,GND*
X162560000Y-130810000D03*
G04 #@! TO.P,uP1,11*
G04 #@! TO.N,INT0*
X160020000Y-130810000D03*
G04 #@! TO.P,uP1,12*
G04 #@! TO.N,Net-(uP1-Pad12)*
X157480000Y-130810000D03*
G04 #@! TO.P,uP1,13*
G04 #@! TO.N,Net-(uP1-Pad13)*
X154940000Y-130810000D03*
G04 #@! TO.P,uP1,14*
G04 #@! TO.N,Net-(U1-Pad11)*
X152400000Y-130810000D03*
G04 #@! TO.P,uP1,15*
G04 #@! TO.N,Net-(U1-Pad9)*
X149860000Y-130810000D03*
G04 #@! TO.P,uP1,16*
G04 #@! TO.N,Net-(U1-Pad7)*
X147320000Y-130810000D03*
G04 #@! TO.P,uP1,17*
G04 #@! TO.N,Net-(U1-Pad6)*
X144780000Y-130810000D03*
G04 #@! TO.P,uP1,18*
G04 #@! TO.N,Net-(U1-Pad5)*
X142240000Y-130810000D03*
G04 #@! TO.P,uP1,30*
G04 #@! TO.N,Net-(R2-Pad2)*
X142240000Y-146050000D03*
G04 #@! TO.P,uP1,29*
G04 #@! TO.N,Net-(R1-Pad2)*
X144780000Y-146050000D03*
G04 #@! TO.P,uP1,28*
G04 #@! TO.N,Net-(uP1-Pad28)*
X147320000Y-146050000D03*
G04 #@! TO.P,uP1,27*
G04 #@! TO.N,Net-(uP1-Pad27)*
X149860000Y-146050000D03*
G04 #@! TO.P,uP1,26*
G04 #@! TO.N,Net-(J1-Pad3)*
X152400000Y-146050000D03*
G04 #@! TO.P,uP1,25*
G04 #@! TO.N,Net-(uP1-Pad25)*
X154940000Y-146050000D03*
G04 #@! TO.P,uP1,24*
G04 #@! TO.N,Net-(uP1-Pad24)*
X157480000Y-146050000D03*
G04 #@! TO.P,uP1,23*
G04 #@! TO.N,Net-(uP1-Pad23)*
X160020000Y-146050000D03*
G04 #@! TO.P,uP1,22*
G04 #@! TO.N,VCC*
X162560000Y-146050000D03*
G04 #@! TO.P,uP1,21*
G04 #@! TO.N,Net-(uP1-Pad21)*
X165100000Y-146050000D03*
G04 #@! TO.P,uP1,20*
G04 #@! TO.N,GND*
X167640000Y-146050000D03*
G04 #@! TO.P,uP1,19*
G04 #@! TO.N,Net-(D1-Pad1)*
X170180000Y-146050000D03*
G04 #@! TD*
D22*
G04 #@! TO.N,GND*
G36*
X173173698Y-33792958D02*
X173598893Y-33961305D01*
X173968858Y-34230101D01*
X174260356Y-34582462D01*
X174455067Y-34996244D01*
X174547093Y-35478662D01*
X174550000Y-35571165D01*
X174550001Y-38030074D01*
X174550000Y-40709925D01*
X174550001Y-40709930D01*
X174550000Y-74867881D01*
X174505935Y-75117787D01*
X174410596Y-75282919D01*
X174264524Y-75405488D01*
X174055532Y-75481555D01*
X173959004Y-75490000D01*
X170110074Y-75490000D01*
X170079507Y-75496080D01*
X169897587Y-75511996D01*
X169807990Y-75536003D01*
X169716632Y-75552112D01*
X169302165Y-75702966D01*
X169088621Y-75826256D01*
X169088620Y-75826257D01*
X168750744Y-76109769D01*
X168599319Y-76290231D01*
X168592247Y-76298659D01*
X168371714Y-76680632D01*
X168371711Y-76680635D01*
X168287376Y-76912344D01*
X168212122Y-77339135D01*
X168200000Y-77400075D01*
X168200001Y-82619926D01*
X168206079Y-82650484D01*
X168221996Y-82832413D01*
X168246003Y-82922010D01*
X168262112Y-83013368D01*
X168412965Y-83427830D01*
X168412966Y-83427835D01*
X168536257Y-83641380D01*
X168819769Y-83979256D01*
X169008660Y-84137754D01*
X169008662Y-84137755D01*
X169390632Y-84358287D01*
X169390633Y-84358287D01*
X169390635Y-84358289D01*
X169622344Y-84442624D01*
X170049119Y-84517875D01*
X170110074Y-84530000D01*
X173927881Y-84530000D01*
X174177787Y-84574065D01*
X174342920Y-84669405D01*
X174465488Y-84815477D01*
X174541555Y-85024465D01*
X174550000Y-85120996D01*
X174550001Y-148520074D01*
X174550000Y-151060074D01*
X174550000Y-151060075D01*
X174550001Y-152355326D01*
X174487042Y-152853699D01*
X174318697Y-153278889D01*
X174049899Y-153648859D01*
X173697541Y-153940355D01*
X173283756Y-154135067D01*
X172801339Y-154227093D01*
X172708836Y-154230000D01*
X127044667Y-154230000D01*
X126546301Y-154167042D01*
X126121111Y-153998697D01*
X125751141Y-153729899D01*
X125459645Y-153377541D01*
X125264933Y-152963756D01*
X125172907Y-152481339D01*
X125170000Y-152388836D01*
X125170000Y-150705322D01*
X127405000Y-150705322D01*
X127405000Y-151554678D01*
X127730034Y-152339380D01*
X128330620Y-152939966D01*
X129115322Y-153265000D01*
X129964678Y-153265000D01*
X130749380Y-152939966D01*
X131349966Y-152339380D01*
X131675000Y-151554678D01*
X131675000Y-150705322D01*
X168045000Y-150705322D01*
X168045000Y-151554678D01*
X168370034Y-152339380D01*
X168970620Y-152939966D01*
X169755322Y-153265000D01*
X170604678Y-153265000D01*
X171389380Y-152939966D01*
X171989966Y-152339380D01*
X172315000Y-151554678D01*
X172315000Y-150705322D01*
X171989966Y-149920620D01*
X171389380Y-149320034D01*
X170604678Y-148995000D01*
X169755322Y-148995000D01*
X168970620Y-149320034D01*
X168370034Y-149920620D01*
X168045000Y-150705322D01*
X131675000Y-150705322D01*
X131349966Y-149920620D01*
X130749380Y-149320034D01*
X129964678Y-148995000D01*
X129115322Y-148995000D01*
X128330620Y-149320034D01*
X127730034Y-149920620D01*
X127405000Y-150705322D01*
X125170000Y-150705322D01*
X125170000Y-145772119D01*
X140843000Y-145772119D01*
X140843000Y-146327881D01*
X141055680Y-146841337D01*
X141448663Y-147234320D01*
X141962119Y-147447000D01*
X142517881Y-147447000D01*
X143031337Y-147234320D01*
X143424320Y-146841337D01*
X143510000Y-146634487D01*
X143595680Y-146841337D01*
X143988663Y-147234320D01*
X144502119Y-147447000D01*
X145057881Y-147447000D01*
X145571337Y-147234320D01*
X145964320Y-146841337D01*
X146050000Y-146634487D01*
X146135680Y-146841337D01*
X146528663Y-147234320D01*
X147042119Y-147447000D01*
X147597881Y-147447000D01*
X148111337Y-147234320D01*
X148504320Y-146841337D01*
X148590000Y-146634487D01*
X148675680Y-146841337D01*
X149068663Y-147234320D01*
X149582119Y-147447000D01*
X150137881Y-147447000D01*
X150651337Y-147234320D01*
X151044320Y-146841337D01*
X151130000Y-146634487D01*
X151215680Y-146841337D01*
X151608663Y-147234320D01*
X152122119Y-147447000D01*
X152677881Y-147447000D01*
X153191337Y-147234320D01*
X153584320Y-146841337D01*
X153670000Y-146634487D01*
X153755680Y-146841337D01*
X154148663Y-147234320D01*
X154662119Y-147447000D01*
X155217881Y-147447000D01*
X155731337Y-147234320D01*
X156124320Y-146841337D01*
X156210000Y-146634487D01*
X156295680Y-146841337D01*
X156688663Y-147234320D01*
X157202119Y-147447000D01*
X157757881Y-147447000D01*
X158271337Y-147234320D01*
X158664320Y-146841337D01*
X158750000Y-146634487D01*
X158835680Y-146841337D01*
X159228663Y-147234320D01*
X159742119Y-147447000D01*
X160297881Y-147447000D01*
X160811337Y-147234320D01*
X161204320Y-146841337D01*
X161290000Y-146634487D01*
X161375680Y-146841337D01*
X161768663Y-147234320D01*
X162282119Y-147447000D01*
X162837881Y-147447000D01*
X163351337Y-147234320D01*
X163744320Y-146841337D01*
X163830000Y-146634487D01*
X163915680Y-146841337D01*
X164308663Y-147234320D01*
X164822119Y-147447000D01*
X165377881Y-147447000D01*
X165891337Y-147234320D01*
X166095444Y-147030213D01*
X166839392Y-147030213D01*
X166908857Y-147272397D01*
X167432302Y-147459144D01*
X167987368Y-147431362D01*
X168371143Y-147272397D01*
X168440608Y-147030213D01*
X167640000Y-146229605D01*
X166839392Y-147030213D01*
X166095444Y-147030213D01*
X166284320Y-146841337D01*
X166363428Y-146650353D01*
X166417603Y-146781143D01*
X166659787Y-146850608D01*
X167460395Y-146050000D01*
X167819605Y-146050000D01*
X168620213Y-146850608D01*
X168862397Y-146781143D01*
X168912535Y-146640607D01*
X168995680Y-146841337D01*
X169388663Y-147234320D01*
X169902119Y-147447000D01*
X170457881Y-147447000D01*
X170971337Y-147234320D01*
X171364320Y-146841337D01*
X171577000Y-146327881D01*
X171577000Y-145772119D01*
X171364320Y-145258663D01*
X170971337Y-144865680D01*
X170457881Y-144653000D01*
X169902119Y-144653000D01*
X169388663Y-144865680D01*
X168995680Y-145258663D01*
X168916572Y-145449647D01*
X168862397Y-145318857D01*
X168620213Y-145249392D01*
X167819605Y-146050000D01*
X167460395Y-146050000D01*
X166659787Y-145249392D01*
X166417603Y-145318857D01*
X166367465Y-145459393D01*
X166284320Y-145258663D01*
X166095444Y-145069787D01*
X166839392Y-145069787D01*
X167640000Y-145870395D01*
X168440608Y-145069787D01*
X168371143Y-144827603D01*
X167847698Y-144640856D01*
X167292632Y-144668638D01*
X166908857Y-144827603D01*
X166839392Y-145069787D01*
X166095444Y-145069787D01*
X165891337Y-144865680D01*
X165377881Y-144653000D01*
X164822119Y-144653000D01*
X164308663Y-144865680D01*
X163915680Y-145258663D01*
X163830000Y-145465513D01*
X163744320Y-145258663D01*
X163351337Y-144865680D01*
X162837881Y-144653000D01*
X162282119Y-144653000D01*
X161768663Y-144865680D01*
X161375680Y-145258663D01*
X161290000Y-145465513D01*
X161204320Y-145258663D01*
X160811337Y-144865680D01*
X160297881Y-144653000D01*
X159742119Y-144653000D01*
X159228663Y-144865680D01*
X158835680Y-145258663D01*
X158750000Y-145465513D01*
X158664320Y-145258663D01*
X158271337Y-144865680D01*
X157757881Y-144653000D01*
X157202119Y-144653000D01*
X156688663Y-144865680D01*
X156295680Y-145258663D01*
X156210000Y-145465513D01*
X156124320Y-145258663D01*
X155731337Y-144865680D01*
X155217881Y-144653000D01*
X154662119Y-144653000D01*
X154148663Y-144865680D01*
X153755680Y-145258663D01*
X153670000Y-145465513D01*
X153584320Y-145258663D01*
X153191337Y-144865680D01*
X152677881Y-144653000D01*
X152122119Y-144653000D01*
X151608663Y-144865680D01*
X151215680Y-145258663D01*
X151130000Y-145465513D01*
X151044320Y-145258663D01*
X150651337Y-144865680D01*
X150137881Y-144653000D01*
X149582119Y-144653000D01*
X149068663Y-144865680D01*
X148675680Y-145258663D01*
X148590000Y-145465513D01*
X148504320Y-145258663D01*
X148111337Y-144865680D01*
X147597881Y-144653000D01*
X147042119Y-144653000D01*
X146528663Y-144865680D01*
X146135680Y-145258663D01*
X146050000Y-145465513D01*
X145964320Y-145258663D01*
X145571337Y-144865680D01*
X145057881Y-144653000D01*
X144502119Y-144653000D01*
X143988663Y-144865680D01*
X143595680Y-145258663D01*
X143510000Y-145465513D01*
X143424320Y-145258663D01*
X143031337Y-144865680D01*
X142517881Y-144653000D01*
X141962119Y-144653000D01*
X141448663Y-144865680D01*
X141055680Y-145258663D01*
X140843000Y-145772119D01*
X125170000Y-145772119D01*
X125170000Y-143437000D01*
X129391400Y-143437000D01*
X129391400Y-144097400D01*
X129554075Y-144661222D01*
X129920132Y-145119873D01*
X130433843Y-145403527D01*
X130530974Y-145425358D01*
X130763000Y-145304217D01*
X130763000Y-143437000D01*
X131017000Y-143437000D01*
X131017000Y-145304217D01*
X131249026Y-145425358D01*
X131346157Y-145403527D01*
X131859868Y-145119873D01*
X132225925Y-144661222D01*
X132388600Y-144097400D01*
X132388600Y-143437000D01*
X131017000Y-143437000D01*
X130763000Y-143437000D01*
X129391400Y-143437000D01*
X125170000Y-143437000D01*
X125170000Y-142522600D01*
X129391400Y-142522600D01*
X129391400Y-143183000D01*
X130763000Y-143183000D01*
X130763000Y-141315783D01*
X131017000Y-141315783D01*
X131017000Y-143183000D01*
X132388600Y-143183000D01*
X132388600Y-142522600D01*
X132382658Y-142502002D01*
X134391400Y-142502002D01*
X134391400Y-144117997D01*
X134478350Y-144555124D01*
X134809570Y-145050830D01*
X135305275Y-145382050D01*
X135890000Y-145498359D01*
X136474724Y-145382050D01*
X136970430Y-145050830D01*
X137301650Y-144555125D01*
X137388600Y-144117998D01*
X137388600Y-142502002D01*
X137301650Y-142064875D01*
X136970430Y-141569170D01*
X136474725Y-141237950D01*
X135890000Y-141121641D01*
X135305276Y-141237950D01*
X134809571Y-141569170D01*
X134478351Y-142064875D01*
X134391400Y-142502002D01*
X132382658Y-142502002D01*
X132225925Y-141958778D01*
X131859868Y-141500127D01*
X131346157Y-141216473D01*
X131249026Y-141194642D01*
X131017000Y-141315783D01*
X130763000Y-141315783D01*
X130530974Y-141194642D01*
X130433843Y-141216473D01*
X129920132Y-141500127D01*
X129554075Y-141958778D01*
X129391400Y-142522600D01*
X125170000Y-142522600D01*
X125170000Y-130937000D01*
X129391400Y-130937000D01*
X129391400Y-131597400D01*
X129554075Y-132161222D01*
X129920132Y-132619873D01*
X130433843Y-132903527D01*
X130530974Y-132925358D01*
X130763000Y-132804217D01*
X130763000Y-130937000D01*
X131017000Y-130937000D01*
X131017000Y-132804217D01*
X131249026Y-132925358D01*
X131346157Y-132903527D01*
X131859868Y-132619873D01*
X132225925Y-132161222D01*
X132388600Y-131597400D01*
X132388600Y-130937000D01*
X131017000Y-130937000D01*
X130763000Y-130937000D01*
X129391400Y-130937000D01*
X125170000Y-130937000D01*
X125170000Y-130022600D01*
X129391400Y-130022600D01*
X129391400Y-130683000D01*
X130763000Y-130683000D01*
X130763000Y-128815783D01*
X131017000Y-128815783D01*
X131017000Y-130683000D01*
X132388600Y-130683000D01*
X132388600Y-130022600D01*
X132382658Y-130002002D01*
X134391400Y-130002002D01*
X134391400Y-131617997D01*
X134478350Y-132055124D01*
X134809570Y-132550830D01*
X135305275Y-132882050D01*
X135890000Y-132998359D01*
X136474724Y-132882050D01*
X136970430Y-132550830D01*
X137301650Y-132055125D01*
X137388600Y-131617998D01*
X137388600Y-130532119D01*
X140843000Y-130532119D01*
X140843000Y-131087881D01*
X141055680Y-131601337D01*
X141448663Y-131994320D01*
X141962119Y-132207000D01*
X142517881Y-132207000D01*
X143031337Y-131994320D01*
X143424320Y-131601337D01*
X143510000Y-131394487D01*
X143595680Y-131601337D01*
X143988663Y-131994320D01*
X144502119Y-132207000D01*
X145057881Y-132207000D01*
X145571337Y-131994320D01*
X145964320Y-131601337D01*
X146050000Y-131394487D01*
X146135680Y-131601337D01*
X146528663Y-131994320D01*
X147042119Y-132207000D01*
X147597881Y-132207000D01*
X148111337Y-131994320D01*
X148504320Y-131601337D01*
X148590000Y-131394487D01*
X148675680Y-131601337D01*
X149068663Y-131994320D01*
X149582119Y-132207000D01*
X150137881Y-132207000D01*
X150651337Y-131994320D01*
X151044320Y-131601337D01*
X151130000Y-131394487D01*
X151215680Y-131601337D01*
X151608663Y-131994320D01*
X152122119Y-132207000D01*
X152677881Y-132207000D01*
X153191337Y-131994320D01*
X153584320Y-131601337D01*
X153670000Y-131394487D01*
X153755680Y-131601337D01*
X154148663Y-131994320D01*
X154662119Y-132207000D01*
X155217881Y-132207000D01*
X155731337Y-131994320D01*
X156124320Y-131601337D01*
X156210000Y-131394487D01*
X156295680Y-131601337D01*
X156688663Y-131994320D01*
X157202119Y-132207000D01*
X157757881Y-132207000D01*
X158271337Y-131994320D01*
X158664320Y-131601337D01*
X158750000Y-131394487D01*
X158835680Y-131601337D01*
X159228663Y-131994320D01*
X159742119Y-132207000D01*
X160297881Y-132207000D01*
X160811337Y-131994320D01*
X161015444Y-131790213D01*
X161759392Y-131790213D01*
X161828857Y-132032397D01*
X162352302Y-132219144D01*
X162907368Y-132191362D01*
X163291143Y-132032397D01*
X163360608Y-131790213D01*
X162560000Y-130989605D01*
X161759392Y-131790213D01*
X161015444Y-131790213D01*
X161204320Y-131601337D01*
X161283428Y-131410353D01*
X161337603Y-131541143D01*
X161579787Y-131610608D01*
X162380395Y-130810000D01*
X162739605Y-130810000D01*
X163540213Y-131610608D01*
X163782397Y-131541143D01*
X163832535Y-131400607D01*
X163915680Y-131601337D01*
X164308663Y-131994320D01*
X164822119Y-132207000D01*
X165377881Y-132207000D01*
X165891337Y-131994320D01*
X166284320Y-131601337D01*
X166370000Y-131394487D01*
X166455680Y-131601337D01*
X166848663Y-131994320D01*
X167362119Y-132207000D01*
X167917881Y-132207000D01*
X168431337Y-131994320D01*
X168824320Y-131601337D01*
X168910000Y-131394487D01*
X168995680Y-131601337D01*
X169388663Y-131994320D01*
X169902119Y-132207000D01*
X170457881Y-132207000D01*
X170971337Y-131994320D01*
X171364320Y-131601337D01*
X171577000Y-131087881D01*
X171577000Y-130532119D01*
X171364320Y-130018663D01*
X170971337Y-129625680D01*
X170457881Y-129413000D01*
X169902119Y-129413000D01*
X169388663Y-129625680D01*
X168995680Y-130018663D01*
X168910000Y-130225513D01*
X168824320Y-130018663D01*
X168431337Y-129625680D01*
X167917881Y-129413000D01*
X167362119Y-129413000D01*
X166848663Y-129625680D01*
X166455680Y-130018663D01*
X166370000Y-130225513D01*
X166284320Y-130018663D01*
X165891337Y-129625680D01*
X165377881Y-129413000D01*
X164822119Y-129413000D01*
X164308663Y-129625680D01*
X163915680Y-130018663D01*
X163836572Y-130209647D01*
X163782397Y-130078857D01*
X163540213Y-130009392D01*
X162739605Y-130810000D01*
X162380395Y-130810000D01*
X161579787Y-130009392D01*
X161337603Y-130078857D01*
X161287465Y-130219393D01*
X161204320Y-130018663D01*
X161015444Y-129829787D01*
X161759392Y-129829787D01*
X162560000Y-130630395D01*
X163360608Y-129829787D01*
X163291143Y-129587603D01*
X162767698Y-129400856D01*
X162212632Y-129428638D01*
X161828857Y-129587603D01*
X161759392Y-129829787D01*
X161015444Y-129829787D01*
X160811337Y-129625680D01*
X160297881Y-129413000D01*
X159742119Y-129413000D01*
X159228663Y-129625680D01*
X158835680Y-130018663D01*
X158750000Y-130225513D01*
X158664320Y-130018663D01*
X158271337Y-129625680D01*
X157757881Y-129413000D01*
X157202119Y-129413000D01*
X156688663Y-129625680D01*
X156295680Y-130018663D01*
X156210000Y-130225513D01*
X156124320Y-130018663D01*
X155731337Y-129625680D01*
X155217881Y-129413000D01*
X154662119Y-129413000D01*
X154148663Y-129625680D01*
X153755680Y-130018663D01*
X153670000Y-130225513D01*
X153584320Y-130018663D01*
X153191337Y-129625680D01*
X152677881Y-129413000D01*
X152122119Y-129413000D01*
X151608663Y-129625680D01*
X151215680Y-130018663D01*
X151130000Y-130225513D01*
X151044320Y-130018663D01*
X150651337Y-129625680D01*
X150137881Y-129413000D01*
X149582119Y-129413000D01*
X149068663Y-129625680D01*
X148675680Y-130018663D01*
X148590000Y-130225513D01*
X148504320Y-130018663D01*
X148111337Y-129625680D01*
X147597881Y-129413000D01*
X147042119Y-129413000D01*
X146528663Y-129625680D01*
X146135680Y-130018663D01*
X146050000Y-130225513D01*
X145964320Y-130018663D01*
X145571337Y-129625680D01*
X145057881Y-129413000D01*
X144502119Y-129413000D01*
X143988663Y-129625680D01*
X143595680Y-130018663D01*
X143510000Y-130225513D01*
X143424320Y-130018663D01*
X143031337Y-129625680D01*
X142517881Y-129413000D01*
X141962119Y-129413000D01*
X141448663Y-129625680D01*
X141055680Y-130018663D01*
X140843000Y-130532119D01*
X137388600Y-130532119D01*
X137388600Y-130002002D01*
X137301650Y-129564875D01*
X136970430Y-129069170D01*
X136474725Y-128737950D01*
X135890000Y-128621641D01*
X135305276Y-128737950D01*
X134809571Y-129069170D01*
X134478351Y-129564875D01*
X134391400Y-130002002D01*
X132382658Y-130002002D01*
X132225925Y-129458778D01*
X131859868Y-129000127D01*
X131346157Y-128716473D01*
X131249026Y-128694642D01*
X131017000Y-128815783D01*
X130763000Y-128815783D01*
X130530974Y-128694642D01*
X130433843Y-128716473D01*
X129920132Y-129000127D01*
X129554075Y-129458778D01*
X129391400Y-130022600D01*
X125170000Y-130022600D01*
X125170000Y-126950719D01*
X128054100Y-126950719D01*
X128054100Y-127506481D01*
X128266780Y-128019937D01*
X128659763Y-128412920D01*
X129173219Y-128625600D01*
X129728981Y-128625600D01*
X130242437Y-128412920D01*
X130635420Y-128019937D01*
X130721100Y-127813087D01*
X130806780Y-128019937D01*
X131199763Y-128412920D01*
X131713219Y-128625600D01*
X132268981Y-128625600D01*
X132782437Y-128412920D01*
X132986544Y-128208813D01*
X133730492Y-128208813D01*
X133799957Y-128450997D01*
X134323402Y-128637744D01*
X134878468Y-128609962D01*
X135262243Y-128450997D01*
X135331708Y-128208813D01*
X134531100Y-127408205D01*
X133730492Y-128208813D01*
X132986544Y-128208813D01*
X133175420Y-128019937D01*
X133254528Y-127828953D01*
X133308703Y-127959743D01*
X133550887Y-128029208D01*
X134351495Y-127228600D01*
X134710705Y-127228600D01*
X135511313Y-128029208D01*
X135753497Y-127959743D01*
X135803635Y-127819207D01*
X135886780Y-128019937D01*
X136279763Y-128412920D01*
X136793219Y-128625600D01*
X137348981Y-128625600D01*
X137862437Y-128412920D01*
X138255420Y-128019937D01*
X138341100Y-127813087D01*
X138426780Y-128019937D01*
X138819763Y-128412920D01*
X139333219Y-128625600D01*
X139888981Y-128625600D01*
X140402437Y-128412920D01*
X140795420Y-128019937D01*
X140881100Y-127813087D01*
X140966780Y-128019937D01*
X141359763Y-128412920D01*
X141873219Y-128625600D01*
X142428981Y-128625600D01*
X142942437Y-128412920D01*
X143335420Y-128019937D01*
X143421100Y-127813087D01*
X143506780Y-128019937D01*
X143899763Y-128412920D01*
X144413219Y-128625600D01*
X144968981Y-128625600D01*
X145482437Y-128412920D01*
X145875420Y-128019937D01*
X145961100Y-127813087D01*
X146046780Y-128019937D01*
X146439763Y-128412920D01*
X146953219Y-128625600D01*
X147508981Y-128625600D01*
X148022437Y-128412920D01*
X148415420Y-128019937D01*
X148501100Y-127813087D01*
X148586780Y-128019937D01*
X148979763Y-128412920D01*
X149493219Y-128625600D01*
X150048981Y-128625600D01*
X150562437Y-128412920D01*
X150955420Y-128019937D01*
X151041100Y-127813087D01*
X151126780Y-128019937D01*
X151519763Y-128412920D01*
X152033219Y-128625600D01*
X152588981Y-128625600D01*
X153102437Y-128412920D01*
X153495420Y-128019937D01*
X153581100Y-127813087D01*
X153666780Y-128019937D01*
X154059763Y-128412920D01*
X154573219Y-128625600D01*
X155128981Y-128625600D01*
X155642437Y-128412920D01*
X156035420Y-128019937D01*
X156121100Y-127813087D01*
X156206780Y-128019937D01*
X156599763Y-128412920D01*
X157113219Y-128625600D01*
X157668981Y-128625600D01*
X158182437Y-128412920D01*
X158575420Y-128019937D01*
X158661100Y-127813087D01*
X158746780Y-128019937D01*
X159139763Y-128412920D01*
X159653219Y-128625600D01*
X160208981Y-128625600D01*
X160722437Y-128412920D01*
X161115420Y-128019937D01*
X161201100Y-127813087D01*
X161286780Y-128019937D01*
X161679763Y-128412920D01*
X162193219Y-128625600D01*
X162748981Y-128625600D01*
X163262437Y-128412920D01*
X163655420Y-128019937D01*
X163741100Y-127813087D01*
X163826780Y-128019937D01*
X164219763Y-128412920D01*
X164733219Y-128625600D01*
X165288981Y-128625600D01*
X165802437Y-128412920D01*
X166195420Y-128019937D01*
X166281100Y-127813087D01*
X166366780Y-128019937D01*
X166759763Y-128412920D01*
X167273219Y-128625600D01*
X167828981Y-128625600D01*
X168342437Y-128412920D01*
X168735420Y-128019937D01*
X168948100Y-127506481D01*
X168948100Y-126950719D01*
X168735420Y-126437263D01*
X168342437Y-126044280D01*
X167828981Y-125831600D01*
X167273219Y-125831600D01*
X166759763Y-126044280D01*
X166366780Y-126437263D01*
X166281100Y-126644113D01*
X166195420Y-126437263D01*
X165802437Y-126044280D01*
X165288981Y-125831600D01*
X164733219Y-125831600D01*
X164219763Y-126044280D01*
X163826780Y-126437263D01*
X163741100Y-126644113D01*
X163655420Y-126437263D01*
X163262437Y-126044280D01*
X162748981Y-125831600D01*
X162193219Y-125831600D01*
X161679763Y-126044280D01*
X161286780Y-126437263D01*
X161201100Y-126644113D01*
X161115420Y-126437263D01*
X160722437Y-126044280D01*
X160208981Y-125831600D01*
X159653219Y-125831600D01*
X159139763Y-126044280D01*
X158746780Y-126437263D01*
X158661100Y-126644113D01*
X158575420Y-126437263D01*
X158182437Y-126044280D01*
X157668981Y-125831600D01*
X157113219Y-125831600D01*
X156599763Y-126044280D01*
X156206780Y-126437263D01*
X156121100Y-126644113D01*
X156035420Y-126437263D01*
X155642437Y-126044280D01*
X155128981Y-125831600D01*
X154573219Y-125831600D01*
X154059763Y-126044280D01*
X153666780Y-126437263D01*
X153581100Y-126644113D01*
X153495420Y-126437263D01*
X153102437Y-126044280D01*
X152588981Y-125831600D01*
X152033219Y-125831600D01*
X151519763Y-126044280D01*
X151126780Y-126437263D01*
X151041100Y-126644113D01*
X150955420Y-126437263D01*
X150562437Y-126044280D01*
X150048981Y-125831600D01*
X149493219Y-125831600D01*
X148979763Y-126044280D01*
X148586780Y-126437263D01*
X148501100Y-126644113D01*
X148415420Y-126437263D01*
X148022437Y-126044280D01*
X147508981Y-125831600D01*
X146953219Y-125831600D01*
X146439763Y-126044280D01*
X146046780Y-126437263D01*
X145961100Y-126644113D01*
X145875420Y-126437263D01*
X145482437Y-126044280D01*
X144968981Y-125831600D01*
X144413219Y-125831600D01*
X143899763Y-126044280D01*
X143506780Y-126437263D01*
X143421100Y-126644113D01*
X143335420Y-126437263D01*
X142942437Y-126044280D01*
X142428981Y-125831600D01*
X141873219Y-125831600D01*
X141359763Y-126044280D01*
X140966780Y-126437263D01*
X140881100Y-126644113D01*
X140795420Y-126437263D01*
X140402437Y-126044280D01*
X139888981Y-125831600D01*
X139333219Y-125831600D01*
X138819763Y-126044280D01*
X138426780Y-126437263D01*
X138341100Y-126644113D01*
X138255420Y-126437263D01*
X137862437Y-126044280D01*
X137348981Y-125831600D01*
X136793219Y-125831600D01*
X136279763Y-126044280D01*
X135886780Y-126437263D01*
X135807672Y-126628247D01*
X135753497Y-126497457D01*
X135511313Y-126427992D01*
X134710705Y-127228600D01*
X134351495Y-127228600D01*
X133550887Y-126427992D01*
X133308703Y-126497457D01*
X133258565Y-126637993D01*
X133175420Y-126437263D01*
X132986544Y-126248387D01*
X133730492Y-126248387D01*
X134531100Y-127048995D01*
X135331708Y-126248387D01*
X135262243Y-126006203D01*
X134738798Y-125819456D01*
X134183732Y-125847238D01*
X133799957Y-126006203D01*
X133730492Y-126248387D01*
X132986544Y-126248387D01*
X132782437Y-126044280D01*
X132268981Y-125831600D01*
X131713219Y-125831600D01*
X131199763Y-126044280D01*
X130806780Y-126437263D01*
X130721100Y-126644113D01*
X130635420Y-126437263D01*
X130242437Y-126044280D01*
X129728981Y-125831600D01*
X129173219Y-125831600D01*
X128659763Y-126044280D01*
X128266780Y-126437263D01*
X128054100Y-126950719D01*
X125170000Y-126950719D01*
X125170000Y-124630000D01*
X170972560Y-124630000D01*
X170972560Y-126830000D01*
X171021843Y-127077765D01*
X171162191Y-127287809D01*
X171372235Y-127428157D01*
X171620000Y-127477440D01*
X173820000Y-127477440D01*
X174067765Y-127428157D01*
X174277809Y-127287809D01*
X174418157Y-127077765D01*
X174467440Y-126830000D01*
X174467440Y-124630000D01*
X174418157Y-124382235D01*
X174277809Y-124172191D01*
X174067765Y-124031843D01*
X173820000Y-123982560D01*
X171620000Y-123982560D01*
X171372235Y-124031843D01*
X171162191Y-124172191D01*
X171021843Y-124382235D01*
X170972560Y-124630000D01*
X125170000Y-124630000D01*
X125170000Y-86248362D01*
X128211100Y-86248362D01*
X128211100Y-87258838D01*
X128597792Y-88192395D01*
X129312305Y-88906908D01*
X130245862Y-89293600D01*
X131256338Y-89293600D01*
X132189895Y-88906908D01*
X132196803Y-88900000D01*
X146596091Y-88900000D01*
X146610001Y-88969931D01*
X146610000Y-121850074D01*
X146596091Y-121920000D01*
X146651195Y-122197028D01*
X146808119Y-122431881D01*
X147042972Y-122588805D01*
X147320000Y-122643909D01*
X147389925Y-122630000D01*
X166300075Y-122630000D01*
X166370000Y-122643909D01*
X166647028Y-122588805D01*
X166881881Y-122431881D01*
X167038805Y-122197028D01*
X167080000Y-121989926D01*
X167080000Y-121989925D01*
X167093909Y-121920000D01*
X167080000Y-121850074D01*
X167080000Y-118110000D01*
X170951010Y-118110000D01*
X171085666Y-118786963D01*
X171469135Y-119360865D01*
X172043037Y-119744334D01*
X172549120Y-119845000D01*
X172890880Y-119845000D01*
X173396963Y-119744334D01*
X173970865Y-119360865D01*
X174354334Y-118786963D01*
X174488990Y-118110000D01*
X174354334Y-117433037D01*
X173970865Y-116859135D01*
X173396963Y-116475666D01*
X172890880Y-116375000D01*
X172549120Y-116375000D01*
X172043037Y-116475666D01*
X171469135Y-116859135D01*
X171085666Y-117433037D01*
X170951010Y-118110000D01*
X167080000Y-118110000D01*
X167080000Y-100330000D01*
X171205908Y-100330000D01*
X171321161Y-100909418D01*
X171649375Y-101400625D01*
X171947761Y-101600000D01*
X171649375Y-101799375D01*
X171321161Y-102290582D01*
X171205908Y-102870000D01*
X171321161Y-103449418D01*
X171649375Y-103940625D01*
X171667619Y-103952816D01*
X171622235Y-103961843D01*
X171412191Y-104102191D01*
X171271843Y-104312235D01*
X171222560Y-104560000D01*
X171222560Y-106260000D01*
X171271843Y-106507765D01*
X171412191Y-106717809D01*
X171622235Y-106858157D01*
X171870000Y-106907440D01*
X173570000Y-106907440D01*
X173817765Y-106858157D01*
X174027809Y-106717809D01*
X174168157Y-106507765D01*
X174217440Y-106260000D01*
X174217440Y-104560000D01*
X174168157Y-104312235D01*
X174027809Y-104102191D01*
X173817765Y-103961843D01*
X173772381Y-103952816D01*
X173790625Y-103940625D01*
X174118839Y-103449418D01*
X174234092Y-102870000D01*
X174118839Y-102290582D01*
X173790625Y-101799375D01*
X173492239Y-101600000D01*
X173790625Y-101400625D01*
X174118839Y-100909418D01*
X174234092Y-100330000D01*
X174118839Y-99750582D01*
X173790625Y-99259375D01*
X173299418Y-98931161D01*
X172866256Y-98845000D01*
X172573744Y-98845000D01*
X172140582Y-98931161D01*
X171649375Y-99259375D01*
X171321161Y-99750582D01*
X171205908Y-100330000D01*
X167080000Y-100330000D01*
X167080000Y-89159535D01*
X167689895Y-88906908D01*
X168404408Y-88192395D01*
X168791100Y-87258838D01*
X168791100Y-86248362D01*
X168404408Y-85314805D01*
X167689895Y-84600292D01*
X166756338Y-84213600D01*
X165745862Y-84213600D01*
X164812305Y-84600292D01*
X164097792Y-85314805D01*
X163711100Y-86248362D01*
X163711100Y-87258838D01*
X164096800Y-88190000D01*
X147389926Y-88190000D01*
X147320000Y-88176091D01*
X147250075Y-88190000D01*
X147250074Y-88190000D01*
X147042972Y-88231195D01*
X146808119Y-88388119D01*
X146651195Y-88622972D01*
X146596091Y-88900000D01*
X132196803Y-88900000D01*
X132904408Y-88192395D01*
X133291100Y-87258838D01*
X133291100Y-86248362D01*
X132904408Y-85314805D01*
X132189895Y-84600292D01*
X131256338Y-84213600D01*
X130245862Y-84213600D01*
X129312305Y-84600292D01*
X128597792Y-85314805D01*
X128211100Y-86248362D01*
X125170000Y-86248362D01*
X125170000Y-79485866D01*
X128175000Y-79485866D01*
X128175000Y-80534134D01*
X128576155Y-81502608D01*
X129317392Y-82243845D01*
X130285866Y-82645000D01*
X131334134Y-82645000D01*
X132302608Y-82243845D01*
X133043845Y-81502608D01*
X133445000Y-80534134D01*
X133445000Y-79485866D01*
X152940000Y-79485866D01*
X152940000Y-80534134D01*
X153341155Y-81502608D01*
X154082392Y-82243845D01*
X155050866Y-82645000D01*
X156099134Y-82645000D01*
X157067608Y-82243845D01*
X157808845Y-81502608D01*
X158127991Y-80732119D01*
X160433000Y-80732119D01*
X160433000Y-81287881D01*
X160645680Y-81801337D01*
X161038663Y-82194320D01*
X161552119Y-82407000D01*
X162107881Y-82407000D01*
X162621337Y-82194320D01*
X163014320Y-81801337D01*
X163227000Y-81287881D01*
X163227000Y-80732119D01*
X163014320Y-80218663D01*
X162621337Y-79825680D01*
X162356289Y-79715894D01*
X161830000Y-79189605D01*
X161303711Y-79715894D01*
X161038663Y-79825680D01*
X160645680Y-80218663D01*
X160433000Y-80732119D01*
X158127991Y-80732119D01*
X158210000Y-80534134D01*
X158210000Y-79485866D01*
X157926859Y-78802302D01*
X160420856Y-78802302D01*
X160448638Y-79357368D01*
X160607603Y-79741143D01*
X160849787Y-79810608D01*
X161650395Y-79010000D01*
X162009605Y-79010000D01*
X162810213Y-79810608D01*
X163052397Y-79741143D01*
X163239144Y-79217698D01*
X163211362Y-78662632D01*
X163052397Y-78278857D01*
X162810213Y-78209392D01*
X162009605Y-79010000D01*
X161650395Y-79010000D01*
X160849787Y-78209392D01*
X160607603Y-78278857D01*
X160420856Y-78802302D01*
X157926859Y-78802302D01*
X157808845Y-78517392D01*
X157321240Y-78029787D01*
X161029392Y-78029787D01*
X161830000Y-78830395D01*
X162630608Y-78029787D01*
X162561143Y-77787603D01*
X162037698Y-77600856D01*
X161482632Y-77628638D01*
X161098857Y-77787603D01*
X161029392Y-78029787D01*
X157321240Y-78029787D01*
X157067608Y-77776155D01*
X156099134Y-77375000D01*
X155050866Y-77375000D01*
X154082392Y-77776155D01*
X153341155Y-78517392D01*
X152940000Y-79485866D01*
X133445000Y-79485866D01*
X133043845Y-78517392D01*
X132302608Y-77776155D01*
X131334134Y-77375000D01*
X130285866Y-77375000D01*
X129317392Y-77776155D01*
X128576155Y-78517392D01*
X128175000Y-79485866D01*
X125170000Y-79485866D01*
X125170000Y-68580000D01*
X163585908Y-68580000D01*
X163701161Y-69159418D01*
X164029375Y-69650625D01*
X164327761Y-69850000D01*
X164029375Y-70049375D01*
X163701161Y-70540582D01*
X163585908Y-71120000D01*
X163701161Y-71699418D01*
X164029375Y-72190625D01*
X164520582Y-72518839D01*
X164953744Y-72605000D01*
X165246256Y-72605000D01*
X165679418Y-72518839D01*
X166170625Y-72190625D01*
X166498839Y-71699418D01*
X166614092Y-71120000D01*
X166498839Y-70540582D01*
X166170625Y-70049375D01*
X165872239Y-69850000D01*
X166170625Y-69650625D01*
X166498839Y-69159418D01*
X166614092Y-68580000D01*
X166498839Y-68000582D01*
X166170625Y-67509375D01*
X166148967Y-67494904D01*
X166309698Y-67428327D01*
X166488327Y-67249699D01*
X166585000Y-67016310D01*
X166585000Y-66325750D01*
X166426250Y-66167000D01*
X165227000Y-66167000D01*
X165227000Y-66187000D01*
X164973000Y-66187000D01*
X164973000Y-66167000D01*
X163773750Y-66167000D01*
X163615000Y-66325750D01*
X163615000Y-67016310D01*
X163711673Y-67249699D01*
X163890302Y-67428327D01*
X164051033Y-67494904D01*
X164029375Y-67509375D01*
X163701161Y-68000582D01*
X163585908Y-68580000D01*
X125170000Y-68580000D01*
X125170000Y-65063690D01*
X163615000Y-65063690D01*
X163615000Y-65754250D01*
X163773750Y-65913000D01*
X164973000Y-65913000D01*
X164973000Y-64713750D01*
X165227000Y-64713750D01*
X165227000Y-65913000D01*
X166426250Y-65913000D01*
X166585000Y-65754250D01*
X166585000Y-65063690D01*
X166488327Y-64830301D01*
X166309698Y-64651673D01*
X166076309Y-64555000D01*
X165385750Y-64555000D01*
X165227000Y-64713750D01*
X164973000Y-64713750D01*
X164814250Y-64555000D01*
X164123691Y-64555000D01*
X163890302Y-64651673D01*
X163711673Y-64830301D01*
X163615000Y-65063690D01*
X125170000Y-65063690D01*
X125170000Y-59690000D01*
X159826887Y-59690000D01*
X159938260Y-60249909D01*
X160255423Y-60724577D01*
X160730091Y-61041740D01*
X161148667Y-61125000D01*
X161431333Y-61125000D01*
X161849909Y-61041740D01*
X162324577Y-60724577D01*
X162641740Y-60249909D01*
X162753113Y-59690000D01*
X162641740Y-59130091D01*
X162324577Y-58655423D01*
X161849909Y-58338260D01*
X161431333Y-58255000D01*
X161148667Y-58255000D01*
X160730091Y-58338260D01*
X160255423Y-58655423D01*
X159938260Y-59130091D01*
X159826887Y-59690000D01*
X125170000Y-59690000D01*
X125170000Y-55574670D01*
X167375000Y-55574670D01*
X167375000Y-56185330D01*
X167608690Y-56749507D01*
X168040493Y-57181310D01*
X168604670Y-57415000D01*
X169215330Y-57415000D01*
X169779507Y-57181310D01*
X169955861Y-57004956D01*
X170011673Y-57139699D01*
X170190302Y-57318327D01*
X170423691Y-57415000D01*
X171164250Y-57415000D01*
X171323000Y-57256250D01*
X171323000Y-56007000D01*
X171577000Y-56007000D01*
X171577000Y-57256250D01*
X171735750Y-57415000D01*
X172476309Y-57415000D01*
X172709698Y-57318327D01*
X172888327Y-57139699D01*
X172985000Y-56906310D01*
X172985000Y-56165750D01*
X172826250Y-56007000D01*
X171577000Y-56007000D01*
X171323000Y-56007000D01*
X171303000Y-56007000D01*
X171303000Y-55753000D01*
X171323000Y-55753000D01*
X171323000Y-54503750D01*
X171577000Y-54503750D01*
X171577000Y-55753000D01*
X172826250Y-55753000D01*
X172985000Y-55594250D01*
X172985000Y-54853690D01*
X172888327Y-54620301D01*
X172709698Y-54441673D01*
X172476309Y-54345000D01*
X171735750Y-54345000D01*
X171577000Y-54503750D01*
X171323000Y-54503750D01*
X171164250Y-54345000D01*
X170423691Y-54345000D01*
X170190302Y-54441673D01*
X170011673Y-54620301D01*
X169955861Y-54755044D01*
X169779507Y-54578690D01*
X169215330Y-54345000D01*
X168604670Y-54345000D01*
X168040493Y-54578690D01*
X167608690Y-55010493D01*
X167375000Y-55574670D01*
X125170000Y-55574670D01*
X125170000Y-49530000D01*
X159826887Y-49530000D01*
X159938260Y-50089909D01*
X160255423Y-50564577D01*
X160607168Y-50799606D01*
X160477138Y-50853466D01*
X160073466Y-51257138D01*
X159855000Y-51784561D01*
X159855000Y-52355439D01*
X160073466Y-52882862D01*
X160477138Y-53286534D01*
X161004561Y-53505000D01*
X161575439Y-53505000D01*
X162102862Y-53286534D01*
X162506534Y-52882862D01*
X162725000Y-52355439D01*
X162725000Y-51784561D01*
X162506534Y-51257138D01*
X162102862Y-50853466D01*
X161972832Y-50799606D01*
X162324577Y-50564577D01*
X162641740Y-50089909D01*
X162753113Y-49530000D01*
X162641740Y-48970091D01*
X162324577Y-48495423D01*
X161849909Y-48178260D01*
X161431333Y-48095000D01*
X161148667Y-48095000D01*
X160730091Y-48178260D01*
X160255423Y-48495423D01*
X159938260Y-48970091D01*
X159826887Y-49530000D01*
X125170000Y-49530000D01*
X125170000Y-45414670D01*
X167375000Y-45414670D01*
X167375000Y-46025330D01*
X167608690Y-46589507D01*
X168040493Y-47021310D01*
X168604670Y-47255000D01*
X169215330Y-47255000D01*
X169779507Y-47021310D01*
X169955861Y-46844956D01*
X170011673Y-46979699D01*
X170190302Y-47158327D01*
X170423691Y-47255000D01*
X171164250Y-47255000D01*
X171323000Y-47096250D01*
X171323000Y-45847000D01*
X171577000Y-45847000D01*
X171577000Y-47096250D01*
X171735750Y-47255000D01*
X172476309Y-47255000D01*
X172709698Y-47158327D01*
X172888327Y-46979699D01*
X172985000Y-46746310D01*
X172985000Y-46005750D01*
X172826250Y-45847000D01*
X171577000Y-45847000D01*
X171323000Y-45847000D01*
X171303000Y-45847000D01*
X171303000Y-45593000D01*
X171323000Y-45593000D01*
X171323000Y-44343750D01*
X171577000Y-44343750D01*
X171577000Y-45593000D01*
X172826250Y-45593000D01*
X172985000Y-45434250D01*
X172985000Y-44693690D01*
X172888327Y-44460301D01*
X172709698Y-44281673D01*
X172476309Y-44185000D01*
X171735750Y-44185000D01*
X171577000Y-44343750D01*
X171323000Y-44343750D01*
X171164250Y-44185000D01*
X170423691Y-44185000D01*
X170190302Y-44281673D01*
X170011673Y-44460301D01*
X169955861Y-44595044D01*
X169779507Y-44418690D01*
X169215330Y-44185000D01*
X168604670Y-44185000D01*
X168040493Y-44418690D01*
X167608690Y-44850493D01*
X167375000Y-45414670D01*
X125170000Y-45414670D01*
X125170000Y-41624561D01*
X159855000Y-41624561D01*
X159855000Y-42195439D01*
X160073466Y-42722862D01*
X160477138Y-43126534D01*
X161004561Y-43345000D01*
X161575439Y-43345000D01*
X162102862Y-43126534D01*
X162506534Y-42722862D01*
X162725000Y-42195439D01*
X162725000Y-41624561D01*
X162506534Y-41097138D01*
X162102862Y-40693466D01*
X161575439Y-40475000D01*
X161004561Y-40475000D01*
X160477138Y-40693466D01*
X160073466Y-41097138D01*
X159855000Y-41624561D01*
X125170000Y-41624561D01*
X125170000Y-36405322D01*
X127405000Y-36405322D01*
X127405000Y-37254678D01*
X127730034Y-38039380D01*
X128330620Y-38639966D01*
X129115322Y-38965000D01*
X129964678Y-38965000D01*
X130749380Y-38639966D01*
X131349966Y-38039380D01*
X131675000Y-37254678D01*
X131675000Y-36405322D01*
X168045000Y-36405322D01*
X168045000Y-37254678D01*
X168370034Y-38039380D01*
X168970620Y-38639966D01*
X169755322Y-38965000D01*
X170604678Y-38965000D01*
X171389380Y-38639966D01*
X171989966Y-38039380D01*
X172315000Y-37254678D01*
X172315000Y-36405322D01*
X171989966Y-35620620D01*
X171389380Y-35020034D01*
X170604678Y-34695000D01*
X169755322Y-34695000D01*
X168970620Y-35020034D01*
X168370034Y-35620620D01*
X168045000Y-36405322D01*
X131675000Y-36405322D01*
X131349966Y-35620620D01*
X130749380Y-35020034D01*
X129964678Y-34695000D01*
X129115322Y-34695000D01*
X128330620Y-35020034D01*
X127730034Y-35620620D01*
X127405000Y-36405322D01*
X125170000Y-36405322D01*
X125170000Y-35604666D01*
X125232958Y-35106302D01*
X125401305Y-34681107D01*
X125670101Y-34311142D01*
X126022462Y-34019644D01*
X126436244Y-33824933D01*
X126918662Y-33732907D01*
X127011164Y-33730000D01*
X172675334Y-33730000D01*
X173173698Y-33792958D01*
X173173698Y-33792958D01*
G37*
X173173698Y-33792958D02*
X173598893Y-33961305D01*
X173968858Y-34230101D01*
X174260356Y-34582462D01*
X174455067Y-34996244D01*
X174547093Y-35478662D01*
X174550000Y-35571165D01*
X174550001Y-38030074D01*
X174550000Y-40709925D01*
X174550001Y-40709930D01*
X174550000Y-74867881D01*
X174505935Y-75117787D01*
X174410596Y-75282919D01*
X174264524Y-75405488D01*
X174055532Y-75481555D01*
X173959004Y-75490000D01*
X170110074Y-75490000D01*
X170079507Y-75496080D01*
X169897587Y-75511996D01*
X169807990Y-75536003D01*
X169716632Y-75552112D01*
X169302165Y-75702966D01*
X169088621Y-75826256D01*
X169088620Y-75826257D01*
X168750744Y-76109769D01*
X168599319Y-76290231D01*
X168592247Y-76298659D01*
X168371714Y-76680632D01*
X168371711Y-76680635D01*
X168287376Y-76912344D01*
X168212122Y-77339135D01*
X168200000Y-77400075D01*
X168200001Y-82619926D01*
X168206079Y-82650484D01*
X168221996Y-82832413D01*
X168246003Y-82922010D01*
X168262112Y-83013368D01*
X168412965Y-83427830D01*
X168412966Y-83427835D01*
X168536257Y-83641380D01*
X168819769Y-83979256D01*
X169008660Y-84137754D01*
X169008662Y-84137755D01*
X169390632Y-84358287D01*
X169390633Y-84358287D01*
X169390635Y-84358289D01*
X169622344Y-84442624D01*
X170049119Y-84517875D01*
X170110074Y-84530000D01*
X173927881Y-84530000D01*
X174177787Y-84574065D01*
X174342920Y-84669405D01*
X174465488Y-84815477D01*
X174541555Y-85024465D01*
X174550000Y-85120996D01*
X174550001Y-148520074D01*
X174550000Y-151060074D01*
X174550000Y-151060075D01*
X174550001Y-152355326D01*
X174487042Y-152853699D01*
X174318697Y-153278889D01*
X174049899Y-153648859D01*
X173697541Y-153940355D01*
X173283756Y-154135067D01*
X172801339Y-154227093D01*
X172708836Y-154230000D01*
X127044667Y-154230000D01*
X126546301Y-154167042D01*
X126121111Y-153998697D01*
X125751141Y-153729899D01*
X125459645Y-153377541D01*
X125264933Y-152963756D01*
X125172907Y-152481339D01*
X125170000Y-152388836D01*
X125170000Y-150705322D01*
X127405000Y-150705322D01*
X127405000Y-151554678D01*
X127730034Y-152339380D01*
X128330620Y-152939966D01*
X129115322Y-153265000D01*
X129964678Y-153265000D01*
X130749380Y-152939966D01*
X131349966Y-152339380D01*
X131675000Y-151554678D01*
X131675000Y-150705322D01*
X168045000Y-150705322D01*
X168045000Y-151554678D01*
X168370034Y-152339380D01*
X168970620Y-152939966D01*
X169755322Y-153265000D01*
X170604678Y-153265000D01*
X171389380Y-152939966D01*
X171989966Y-152339380D01*
X172315000Y-151554678D01*
X172315000Y-150705322D01*
X171989966Y-149920620D01*
X171389380Y-149320034D01*
X170604678Y-148995000D01*
X169755322Y-148995000D01*
X168970620Y-149320034D01*
X168370034Y-149920620D01*
X168045000Y-150705322D01*
X131675000Y-150705322D01*
X131349966Y-149920620D01*
X130749380Y-149320034D01*
X129964678Y-148995000D01*
X129115322Y-148995000D01*
X128330620Y-149320034D01*
X127730034Y-149920620D01*
X127405000Y-150705322D01*
X125170000Y-150705322D01*
X125170000Y-145772119D01*
X140843000Y-145772119D01*
X140843000Y-146327881D01*
X141055680Y-146841337D01*
X141448663Y-147234320D01*
X141962119Y-147447000D01*
X142517881Y-147447000D01*
X143031337Y-147234320D01*
X143424320Y-146841337D01*
X143510000Y-146634487D01*
X143595680Y-146841337D01*
X143988663Y-147234320D01*
X144502119Y-147447000D01*
X145057881Y-147447000D01*
X145571337Y-147234320D01*
X145964320Y-146841337D01*
X146050000Y-146634487D01*
X146135680Y-146841337D01*
X146528663Y-147234320D01*
X147042119Y-147447000D01*
X147597881Y-147447000D01*
X148111337Y-147234320D01*
X148504320Y-146841337D01*
X148590000Y-146634487D01*
X148675680Y-146841337D01*
X149068663Y-147234320D01*
X149582119Y-147447000D01*
X150137881Y-147447000D01*
X150651337Y-147234320D01*
X151044320Y-146841337D01*
X151130000Y-146634487D01*
X151215680Y-146841337D01*
X151608663Y-147234320D01*
X152122119Y-147447000D01*
X152677881Y-147447000D01*
X153191337Y-147234320D01*
X153584320Y-146841337D01*
X153670000Y-146634487D01*
X153755680Y-146841337D01*
X154148663Y-147234320D01*
X154662119Y-147447000D01*
X155217881Y-147447000D01*
X155731337Y-147234320D01*
X156124320Y-146841337D01*
X156210000Y-146634487D01*
X156295680Y-146841337D01*
X156688663Y-147234320D01*
X157202119Y-147447000D01*
X157757881Y-147447000D01*
X158271337Y-147234320D01*
X158664320Y-146841337D01*
X158750000Y-146634487D01*
X158835680Y-146841337D01*
X159228663Y-147234320D01*
X159742119Y-147447000D01*
X160297881Y-147447000D01*
X160811337Y-147234320D01*
X161204320Y-146841337D01*
X161290000Y-146634487D01*
X161375680Y-146841337D01*
X161768663Y-147234320D01*
X162282119Y-147447000D01*
X162837881Y-147447000D01*
X163351337Y-147234320D01*
X163744320Y-146841337D01*
X163830000Y-146634487D01*
X163915680Y-146841337D01*
X164308663Y-147234320D01*
X164822119Y-147447000D01*
X165377881Y-147447000D01*
X165891337Y-147234320D01*
X166095444Y-147030213D01*
X166839392Y-147030213D01*
X166908857Y-147272397D01*
X167432302Y-147459144D01*
X167987368Y-147431362D01*
X168371143Y-147272397D01*
X168440608Y-147030213D01*
X167640000Y-146229605D01*
X166839392Y-147030213D01*
X166095444Y-147030213D01*
X166284320Y-146841337D01*
X166363428Y-146650353D01*
X166417603Y-146781143D01*
X166659787Y-146850608D01*
X167460395Y-146050000D01*
X167819605Y-146050000D01*
X168620213Y-146850608D01*
X168862397Y-146781143D01*
X168912535Y-146640607D01*
X168995680Y-146841337D01*
X169388663Y-147234320D01*
X169902119Y-147447000D01*
X170457881Y-147447000D01*
X170971337Y-147234320D01*
X171364320Y-146841337D01*
X171577000Y-146327881D01*
X171577000Y-145772119D01*
X171364320Y-145258663D01*
X170971337Y-144865680D01*
X170457881Y-144653000D01*
X169902119Y-144653000D01*
X169388663Y-144865680D01*
X168995680Y-145258663D01*
X168916572Y-145449647D01*
X168862397Y-145318857D01*
X168620213Y-145249392D01*
X167819605Y-146050000D01*
X167460395Y-146050000D01*
X166659787Y-145249392D01*
X166417603Y-145318857D01*
X166367465Y-145459393D01*
X166284320Y-145258663D01*
X166095444Y-145069787D01*
X166839392Y-145069787D01*
X167640000Y-145870395D01*
X168440608Y-145069787D01*
X168371143Y-144827603D01*
X167847698Y-144640856D01*
X167292632Y-144668638D01*
X166908857Y-144827603D01*
X166839392Y-145069787D01*
X166095444Y-145069787D01*
X165891337Y-144865680D01*
X165377881Y-144653000D01*
X164822119Y-144653000D01*
X164308663Y-144865680D01*
X163915680Y-145258663D01*
X163830000Y-145465513D01*
X163744320Y-145258663D01*
X163351337Y-144865680D01*
X162837881Y-144653000D01*
X162282119Y-144653000D01*
X161768663Y-144865680D01*
X161375680Y-145258663D01*
X161290000Y-145465513D01*
X161204320Y-145258663D01*
X160811337Y-144865680D01*
X160297881Y-144653000D01*
X159742119Y-144653000D01*
X159228663Y-144865680D01*
X158835680Y-145258663D01*
X158750000Y-145465513D01*
X158664320Y-145258663D01*
X158271337Y-144865680D01*
X157757881Y-144653000D01*
X157202119Y-144653000D01*
X156688663Y-144865680D01*
X156295680Y-145258663D01*
X156210000Y-145465513D01*
X156124320Y-145258663D01*
X155731337Y-144865680D01*
X155217881Y-144653000D01*
X154662119Y-144653000D01*
X154148663Y-144865680D01*
X153755680Y-145258663D01*
X153670000Y-145465513D01*
X153584320Y-145258663D01*
X153191337Y-144865680D01*
X152677881Y-144653000D01*
X152122119Y-144653000D01*
X151608663Y-144865680D01*
X151215680Y-145258663D01*
X151130000Y-145465513D01*
X151044320Y-145258663D01*
X150651337Y-144865680D01*
X150137881Y-144653000D01*
X149582119Y-144653000D01*
X149068663Y-144865680D01*
X148675680Y-145258663D01*
X148590000Y-145465513D01*
X148504320Y-145258663D01*
X148111337Y-144865680D01*
X147597881Y-144653000D01*
X147042119Y-144653000D01*
X146528663Y-144865680D01*
X146135680Y-145258663D01*
X146050000Y-145465513D01*
X145964320Y-145258663D01*
X145571337Y-144865680D01*
X145057881Y-144653000D01*
X144502119Y-144653000D01*
X143988663Y-144865680D01*
X143595680Y-145258663D01*
X143510000Y-145465513D01*
X143424320Y-145258663D01*
X143031337Y-144865680D01*
X142517881Y-144653000D01*
X141962119Y-144653000D01*
X141448663Y-144865680D01*
X141055680Y-145258663D01*
X140843000Y-145772119D01*
X125170000Y-145772119D01*
X125170000Y-143437000D01*
X129391400Y-143437000D01*
X129391400Y-144097400D01*
X129554075Y-144661222D01*
X129920132Y-145119873D01*
X130433843Y-145403527D01*
X130530974Y-145425358D01*
X130763000Y-145304217D01*
X130763000Y-143437000D01*
X131017000Y-143437000D01*
X131017000Y-145304217D01*
X131249026Y-145425358D01*
X131346157Y-145403527D01*
X131859868Y-145119873D01*
X132225925Y-144661222D01*
X132388600Y-144097400D01*
X132388600Y-143437000D01*
X131017000Y-143437000D01*
X130763000Y-143437000D01*
X129391400Y-143437000D01*
X125170000Y-143437000D01*
X125170000Y-142522600D01*
X129391400Y-142522600D01*
X129391400Y-143183000D01*
X130763000Y-143183000D01*
X130763000Y-141315783D01*
X131017000Y-141315783D01*
X131017000Y-143183000D01*
X132388600Y-143183000D01*
X132388600Y-142522600D01*
X132382658Y-142502002D01*
X134391400Y-142502002D01*
X134391400Y-144117997D01*
X134478350Y-144555124D01*
X134809570Y-145050830D01*
X135305275Y-145382050D01*
X135890000Y-145498359D01*
X136474724Y-145382050D01*
X136970430Y-145050830D01*
X137301650Y-144555125D01*
X137388600Y-144117998D01*
X137388600Y-142502002D01*
X137301650Y-142064875D01*
X136970430Y-141569170D01*
X136474725Y-141237950D01*
X135890000Y-141121641D01*
X135305276Y-141237950D01*
X134809571Y-141569170D01*
X134478351Y-142064875D01*
X134391400Y-142502002D01*
X132382658Y-142502002D01*
X132225925Y-141958778D01*
X131859868Y-141500127D01*
X131346157Y-141216473D01*
X131249026Y-141194642D01*
X131017000Y-141315783D01*
X130763000Y-141315783D01*
X130530974Y-141194642D01*
X130433843Y-141216473D01*
X129920132Y-141500127D01*
X129554075Y-141958778D01*
X129391400Y-142522600D01*
X125170000Y-142522600D01*
X125170000Y-130937000D01*
X129391400Y-130937000D01*
X129391400Y-131597400D01*
X129554075Y-132161222D01*
X129920132Y-132619873D01*
X130433843Y-132903527D01*
X130530974Y-132925358D01*
X130763000Y-132804217D01*
X130763000Y-130937000D01*
X131017000Y-130937000D01*
X131017000Y-132804217D01*
X131249026Y-132925358D01*
X131346157Y-132903527D01*
X131859868Y-132619873D01*
X132225925Y-132161222D01*
X132388600Y-131597400D01*
X132388600Y-130937000D01*
X131017000Y-130937000D01*
X130763000Y-130937000D01*
X129391400Y-130937000D01*
X125170000Y-130937000D01*
X125170000Y-130022600D01*
X129391400Y-130022600D01*
X129391400Y-130683000D01*
X130763000Y-130683000D01*
X130763000Y-128815783D01*
X131017000Y-128815783D01*
X131017000Y-130683000D01*
X132388600Y-130683000D01*
X132388600Y-130022600D01*
X132382658Y-130002002D01*
X134391400Y-130002002D01*
X134391400Y-131617997D01*
X134478350Y-132055124D01*
X134809570Y-132550830D01*
X135305275Y-132882050D01*
X135890000Y-132998359D01*
X136474724Y-132882050D01*
X136970430Y-132550830D01*
X137301650Y-132055125D01*
X137388600Y-131617998D01*
X137388600Y-130532119D01*
X140843000Y-130532119D01*
X140843000Y-131087881D01*
X141055680Y-131601337D01*
X141448663Y-131994320D01*
X141962119Y-132207000D01*
X142517881Y-132207000D01*
X143031337Y-131994320D01*
X143424320Y-131601337D01*
X143510000Y-131394487D01*
X143595680Y-131601337D01*
X143988663Y-131994320D01*
X144502119Y-132207000D01*
X145057881Y-132207000D01*
X145571337Y-131994320D01*
X145964320Y-131601337D01*
X146050000Y-131394487D01*
X146135680Y-131601337D01*
X146528663Y-131994320D01*
X147042119Y-132207000D01*
X147597881Y-132207000D01*
X148111337Y-131994320D01*
X148504320Y-131601337D01*
X148590000Y-131394487D01*
X148675680Y-131601337D01*
X149068663Y-131994320D01*
X149582119Y-132207000D01*
X150137881Y-132207000D01*
X150651337Y-131994320D01*
X151044320Y-131601337D01*
X151130000Y-131394487D01*
X151215680Y-131601337D01*
X151608663Y-131994320D01*
X152122119Y-132207000D01*
X152677881Y-132207000D01*
X153191337Y-131994320D01*
X153584320Y-131601337D01*
X153670000Y-131394487D01*
X153755680Y-131601337D01*
X154148663Y-131994320D01*
X154662119Y-132207000D01*
X155217881Y-132207000D01*
X155731337Y-131994320D01*
X156124320Y-131601337D01*
X156210000Y-131394487D01*
X156295680Y-131601337D01*
X156688663Y-131994320D01*
X157202119Y-132207000D01*
X157757881Y-132207000D01*
X158271337Y-131994320D01*
X158664320Y-131601337D01*
X158750000Y-131394487D01*
X158835680Y-131601337D01*
X159228663Y-131994320D01*
X159742119Y-132207000D01*
X160297881Y-132207000D01*
X160811337Y-131994320D01*
X161015444Y-131790213D01*
X161759392Y-131790213D01*
X161828857Y-132032397D01*
X162352302Y-132219144D01*
X162907368Y-132191362D01*
X163291143Y-132032397D01*
X163360608Y-131790213D01*
X162560000Y-130989605D01*
X161759392Y-131790213D01*
X161015444Y-131790213D01*
X161204320Y-131601337D01*
X161283428Y-131410353D01*
X161337603Y-131541143D01*
X161579787Y-131610608D01*
X162380395Y-130810000D01*
X162739605Y-130810000D01*
X163540213Y-131610608D01*
X163782397Y-131541143D01*
X163832535Y-131400607D01*
X163915680Y-131601337D01*
X164308663Y-131994320D01*
X164822119Y-132207000D01*
X165377881Y-132207000D01*
X165891337Y-131994320D01*
X166284320Y-131601337D01*
X166370000Y-131394487D01*
X166455680Y-131601337D01*
X166848663Y-131994320D01*
X167362119Y-132207000D01*
X167917881Y-132207000D01*
X168431337Y-131994320D01*
X168824320Y-131601337D01*
X168910000Y-131394487D01*
X168995680Y-131601337D01*
X169388663Y-131994320D01*
X169902119Y-132207000D01*
X170457881Y-132207000D01*
X170971337Y-131994320D01*
X171364320Y-131601337D01*
X171577000Y-131087881D01*
X171577000Y-130532119D01*
X171364320Y-130018663D01*
X170971337Y-129625680D01*
X170457881Y-129413000D01*
X169902119Y-129413000D01*
X169388663Y-129625680D01*
X168995680Y-130018663D01*
X168910000Y-130225513D01*
X168824320Y-130018663D01*
X168431337Y-129625680D01*
X167917881Y-129413000D01*
X167362119Y-129413000D01*
X166848663Y-129625680D01*
X166455680Y-130018663D01*
X166370000Y-130225513D01*
X166284320Y-130018663D01*
X165891337Y-129625680D01*
X165377881Y-129413000D01*
X164822119Y-129413000D01*
X164308663Y-129625680D01*
X163915680Y-130018663D01*
X163836572Y-130209647D01*
X163782397Y-130078857D01*
X163540213Y-130009392D01*
X162739605Y-130810000D01*
X162380395Y-130810000D01*
X161579787Y-130009392D01*
X161337603Y-130078857D01*
X161287465Y-130219393D01*
X161204320Y-130018663D01*
X161015444Y-129829787D01*
X161759392Y-129829787D01*
X162560000Y-130630395D01*
X163360608Y-129829787D01*
X163291143Y-129587603D01*
X162767698Y-129400856D01*
X162212632Y-129428638D01*
X161828857Y-129587603D01*
X161759392Y-129829787D01*
X161015444Y-129829787D01*
X160811337Y-129625680D01*
X160297881Y-129413000D01*
X159742119Y-129413000D01*
X159228663Y-129625680D01*
X158835680Y-130018663D01*
X158750000Y-130225513D01*
X158664320Y-130018663D01*
X158271337Y-129625680D01*
X157757881Y-129413000D01*
X157202119Y-129413000D01*
X156688663Y-129625680D01*
X156295680Y-130018663D01*
X156210000Y-130225513D01*
X156124320Y-130018663D01*
X155731337Y-129625680D01*
X155217881Y-129413000D01*
X154662119Y-129413000D01*
X154148663Y-129625680D01*
X153755680Y-130018663D01*
X153670000Y-130225513D01*
X153584320Y-130018663D01*
X153191337Y-129625680D01*
X152677881Y-129413000D01*
X152122119Y-129413000D01*
X151608663Y-129625680D01*
X151215680Y-130018663D01*
X151130000Y-130225513D01*
X151044320Y-130018663D01*
X150651337Y-129625680D01*
X150137881Y-129413000D01*
X149582119Y-129413000D01*
X149068663Y-129625680D01*
X148675680Y-130018663D01*
X148590000Y-130225513D01*
X148504320Y-130018663D01*
X148111337Y-129625680D01*
X147597881Y-129413000D01*
X147042119Y-129413000D01*
X146528663Y-129625680D01*
X146135680Y-130018663D01*
X146050000Y-130225513D01*
X145964320Y-130018663D01*
X145571337Y-129625680D01*
X145057881Y-129413000D01*
X144502119Y-129413000D01*
X143988663Y-129625680D01*
X143595680Y-130018663D01*
X143510000Y-130225513D01*
X143424320Y-130018663D01*
X143031337Y-129625680D01*
X142517881Y-129413000D01*
X141962119Y-129413000D01*
X141448663Y-129625680D01*
X141055680Y-130018663D01*
X140843000Y-130532119D01*
X137388600Y-130532119D01*
X137388600Y-130002002D01*
X137301650Y-129564875D01*
X136970430Y-129069170D01*
X136474725Y-128737950D01*
X135890000Y-128621641D01*
X135305276Y-128737950D01*
X134809571Y-129069170D01*
X134478351Y-129564875D01*
X134391400Y-130002002D01*
X132382658Y-130002002D01*
X132225925Y-129458778D01*
X131859868Y-129000127D01*
X131346157Y-128716473D01*
X131249026Y-128694642D01*
X131017000Y-128815783D01*
X130763000Y-128815783D01*
X130530974Y-128694642D01*
X130433843Y-128716473D01*
X129920132Y-129000127D01*
X129554075Y-129458778D01*
X129391400Y-130022600D01*
X125170000Y-130022600D01*
X125170000Y-126950719D01*
X128054100Y-126950719D01*
X128054100Y-127506481D01*
X128266780Y-128019937D01*
X128659763Y-128412920D01*
X129173219Y-128625600D01*
X129728981Y-128625600D01*
X130242437Y-128412920D01*
X130635420Y-128019937D01*
X130721100Y-127813087D01*
X130806780Y-128019937D01*
X131199763Y-128412920D01*
X131713219Y-128625600D01*
X132268981Y-128625600D01*
X132782437Y-128412920D01*
X132986544Y-128208813D01*
X133730492Y-128208813D01*
X133799957Y-128450997D01*
X134323402Y-128637744D01*
X134878468Y-128609962D01*
X135262243Y-128450997D01*
X135331708Y-128208813D01*
X134531100Y-127408205D01*
X133730492Y-128208813D01*
X132986544Y-128208813D01*
X133175420Y-128019937D01*
X133254528Y-127828953D01*
X133308703Y-127959743D01*
X133550887Y-128029208D01*
X134351495Y-127228600D01*
X134710705Y-127228600D01*
X135511313Y-128029208D01*
X135753497Y-127959743D01*
X135803635Y-127819207D01*
X135886780Y-128019937D01*
X136279763Y-128412920D01*
X136793219Y-128625600D01*
X137348981Y-128625600D01*
X137862437Y-128412920D01*
X138255420Y-128019937D01*
X138341100Y-127813087D01*
X138426780Y-128019937D01*
X138819763Y-128412920D01*
X139333219Y-128625600D01*
X139888981Y-128625600D01*
X140402437Y-128412920D01*
X140795420Y-128019937D01*
X140881100Y-127813087D01*
X140966780Y-128019937D01*
X141359763Y-128412920D01*
X141873219Y-128625600D01*
X142428981Y-128625600D01*
X142942437Y-128412920D01*
X143335420Y-128019937D01*
X143421100Y-127813087D01*
X143506780Y-128019937D01*
X143899763Y-128412920D01*
X144413219Y-128625600D01*
X144968981Y-128625600D01*
X145482437Y-128412920D01*
X145875420Y-128019937D01*
X145961100Y-127813087D01*
X146046780Y-128019937D01*
X146439763Y-128412920D01*
X146953219Y-128625600D01*
X147508981Y-128625600D01*
X148022437Y-128412920D01*
X148415420Y-128019937D01*
X148501100Y-127813087D01*
X148586780Y-128019937D01*
X148979763Y-128412920D01*
X149493219Y-128625600D01*
X150048981Y-128625600D01*
X150562437Y-128412920D01*
X150955420Y-128019937D01*
X151041100Y-127813087D01*
X151126780Y-128019937D01*
X151519763Y-128412920D01*
X152033219Y-128625600D01*
X152588981Y-128625600D01*
X153102437Y-128412920D01*
X153495420Y-128019937D01*
X153581100Y-127813087D01*
X153666780Y-128019937D01*
X154059763Y-128412920D01*
X154573219Y-128625600D01*
X155128981Y-128625600D01*
X155642437Y-128412920D01*
X156035420Y-128019937D01*
X156121100Y-127813087D01*
X156206780Y-128019937D01*
X156599763Y-128412920D01*
X157113219Y-128625600D01*
X157668981Y-128625600D01*
X158182437Y-128412920D01*
X158575420Y-128019937D01*
X158661100Y-127813087D01*
X158746780Y-128019937D01*
X159139763Y-128412920D01*
X159653219Y-128625600D01*
X160208981Y-128625600D01*
X160722437Y-128412920D01*
X161115420Y-128019937D01*
X161201100Y-127813087D01*
X161286780Y-128019937D01*
X161679763Y-128412920D01*
X162193219Y-128625600D01*
X162748981Y-128625600D01*
X163262437Y-128412920D01*
X163655420Y-128019937D01*
X163741100Y-127813087D01*
X163826780Y-128019937D01*
X164219763Y-128412920D01*
X164733219Y-128625600D01*
X165288981Y-128625600D01*
X165802437Y-128412920D01*
X166195420Y-128019937D01*
X166281100Y-127813087D01*
X166366780Y-128019937D01*
X166759763Y-128412920D01*
X167273219Y-128625600D01*
X167828981Y-128625600D01*
X168342437Y-128412920D01*
X168735420Y-128019937D01*
X168948100Y-127506481D01*
X168948100Y-126950719D01*
X168735420Y-126437263D01*
X168342437Y-126044280D01*
X167828981Y-125831600D01*
X167273219Y-125831600D01*
X166759763Y-126044280D01*
X166366780Y-126437263D01*
X166281100Y-126644113D01*
X166195420Y-126437263D01*
X165802437Y-126044280D01*
X165288981Y-125831600D01*
X164733219Y-125831600D01*
X164219763Y-126044280D01*
X163826780Y-126437263D01*
X163741100Y-126644113D01*
X163655420Y-126437263D01*
X163262437Y-126044280D01*
X162748981Y-125831600D01*
X162193219Y-125831600D01*
X161679763Y-126044280D01*
X161286780Y-126437263D01*
X161201100Y-126644113D01*
X161115420Y-126437263D01*
X160722437Y-126044280D01*
X160208981Y-125831600D01*
X159653219Y-125831600D01*
X159139763Y-126044280D01*
X158746780Y-126437263D01*
X158661100Y-126644113D01*
X158575420Y-126437263D01*
X158182437Y-126044280D01*
X157668981Y-125831600D01*
X157113219Y-125831600D01*
X156599763Y-126044280D01*
X156206780Y-126437263D01*
X156121100Y-126644113D01*
X156035420Y-126437263D01*
X155642437Y-126044280D01*
X155128981Y-125831600D01*
X154573219Y-125831600D01*
X154059763Y-126044280D01*
X153666780Y-126437263D01*
X153581100Y-126644113D01*
X153495420Y-126437263D01*
X153102437Y-126044280D01*
X152588981Y-125831600D01*
X152033219Y-125831600D01*
X151519763Y-126044280D01*
X151126780Y-126437263D01*
X151041100Y-126644113D01*
X150955420Y-126437263D01*
X150562437Y-126044280D01*
X150048981Y-125831600D01*
X149493219Y-125831600D01*
X148979763Y-126044280D01*
X148586780Y-126437263D01*
X148501100Y-126644113D01*
X148415420Y-126437263D01*
X148022437Y-126044280D01*
X147508981Y-125831600D01*
X146953219Y-125831600D01*
X146439763Y-126044280D01*
X146046780Y-126437263D01*
X145961100Y-126644113D01*
X145875420Y-126437263D01*
X145482437Y-126044280D01*
X144968981Y-125831600D01*
X144413219Y-125831600D01*
X143899763Y-126044280D01*
X143506780Y-126437263D01*
X143421100Y-126644113D01*
X143335420Y-126437263D01*
X142942437Y-126044280D01*
X142428981Y-125831600D01*
X141873219Y-125831600D01*
X141359763Y-126044280D01*
X140966780Y-126437263D01*
X140881100Y-126644113D01*
X140795420Y-126437263D01*
X140402437Y-126044280D01*
X139888981Y-125831600D01*
X139333219Y-125831600D01*
X138819763Y-126044280D01*
X138426780Y-126437263D01*
X138341100Y-126644113D01*
X138255420Y-126437263D01*
X137862437Y-126044280D01*
X137348981Y-125831600D01*
X136793219Y-125831600D01*
X136279763Y-126044280D01*
X135886780Y-126437263D01*
X135807672Y-126628247D01*
X135753497Y-126497457D01*
X135511313Y-126427992D01*
X134710705Y-127228600D01*
X134351495Y-127228600D01*
X133550887Y-126427992D01*
X133308703Y-126497457D01*
X133258565Y-126637993D01*
X133175420Y-126437263D01*
X132986544Y-126248387D01*
X133730492Y-126248387D01*
X134531100Y-127048995D01*
X135331708Y-126248387D01*
X135262243Y-126006203D01*
X134738798Y-125819456D01*
X134183732Y-125847238D01*
X133799957Y-126006203D01*
X133730492Y-126248387D01*
X132986544Y-126248387D01*
X132782437Y-126044280D01*
X132268981Y-125831600D01*
X131713219Y-125831600D01*
X131199763Y-126044280D01*
X130806780Y-126437263D01*
X130721100Y-126644113D01*
X130635420Y-126437263D01*
X130242437Y-126044280D01*
X129728981Y-125831600D01*
X129173219Y-125831600D01*
X128659763Y-126044280D01*
X128266780Y-126437263D01*
X128054100Y-126950719D01*
X125170000Y-126950719D01*
X125170000Y-124630000D01*
X170972560Y-124630000D01*
X170972560Y-126830000D01*
X171021843Y-127077765D01*
X171162191Y-127287809D01*
X171372235Y-127428157D01*
X171620000Y-127477440D01*
X173820000Y-127477440D01*
X174067765Y-127428157D01*
X174277809Y-127287809D01*
X174418157Y-127077765D01*
X174467440Y-126830000D01*
X174467440Y-124630000D01*
X174418157Y-124382235D01*
X174277809Y-124172191D01*
X174067765Y-124031843D01*
X173820000Y-123982560D01*
X171620000Y-123982560D01*
X171372235Y-124031843D01*
X171162191Y-124172191D01*
X171021843Y-124382235D01*
X170972560Y-124630000D01*
X125170000Y-124630000D01*
X125170000Y-86248362D01*
X128211100Y-86248362D01*
X128211100Y-87258838D01*
X128597792Y-88192395D01*
X129312305Y-88906908D01*
X130245862Y-89293600D01*
X131256338Y-89293600D01*
X132189895Y-88906908D01*
X132196803Y-88900000D01*
X146596091Y-88900000D01*
X146610001Y-88969931D01*
X146610000Y-121850074D01*
X146596091Y-121920000D01*
X146651195Y-122197028D01*
X146808119Y-122431881D01*
X147042972Y-122588805D01*
X147320000Y-122643909D01*
X147389925Y-122630000D01*
X166300075Y-122630000D01*
X166370000Y-122643909D01*
X166647028Y-122588805D01*
X166881881Y-122431881D01*
X167038805Y-122197028D01*
X167080000Y-121989926D01*
X167080000Y-121989925D01*
X167093909Y-121920000D01*
X167080000Y-121850074D01*
X167080000Y-118110000D01*
X170951010Y-118110000D01*
X171085666Y-118786963D01*
X171469135Y-119360865D01*
X172043037Y-119744334D01*
X172549120Y-119845000D01*
X172890880Y-119845000D01*
X173396963Y-119744334D01*
X173970865Y-119360865D01*
X174354334Y-118786963D01*
X174488990Y-118110000D01*
X174354334Y-117433037D01*
X173970865Y-116859135D01*
X173396963Y-116475666D01*
X172890880Y-116375000D01*
X172549120Y-116375000D01*
X172043037Y-116475666D01*
X171469135Y-116859135D01*
X171085666Y-117433037D01*
X170951010Y-118110000D01*
X167080000Y-118110000D01*
X167080000Y-100330000D01*
X171205908Y-100330000D01*
X171321161Y-100909418D01*
X171649375Y-101400625D01*
X171947761Y-101600000D01*
X171649375Y-101799375D01*
X171321161Y-102290582D01*
X171205908Y-102870000D01*
X171321161Y-103449418D01*
X171649375Y-103940625D01*
X171667619Y-103952816D01*
X171622235Y-103961843D01*
X171412191Y-104102191D01*
X171271843Y-104312235D01*
X171222560Y-104560000D01*
X171222560Y-106260000D01*
X171271843Y-106507765D01*
X171412191Y-106717809D01*
X171622235Y-106858157D01*
X171870000Y-106907440D01*
X173570000Y-106907440D01*
X173817765Y-106858157D01*
X174027809Y-106717809D01*
X174168157Y-106507765D01*
X174217440Y-106260000D01*
X174217440Y-104560000D01*
X174168157Y-104312235D01*
X174027809Y-104102191D01*
X173817765Y-103961843D01*
X173772381Y-103952816D01*
X173790625Y-103940625D01*
X174118839Y-103449418D01*
X174234092Y-102870000D01*
X174118839Y-102290582D01*
X173790625Y-101799375D01*
X173492239Y-101600000D01*
X173790625Y-101400625D01*
X174118839Y-100909418D01*
X174234092Y-100330000D01*
X174118839Y-99750582D01*
X173790625Y-99259375D01*
X173299418Y-98931161D01*
X172866256Y-98845000D01*
X172573744Y-98845000D01*
X172140582Y-98931161D01*
X171649375Y-99259375D01*
X171321161Y-99750582D01*
X171205908Y-100330000D01*
X167080000Y-100330000D01*
X167080000Y-89159535D01*
X167689895Y-88906908D01*
X168404408Y-88192395D01*
X168791100Y-87258838D01*
X168791100Y-86248362D01*
X168404408Y-85314805D01*
X167689895Y-84600292D01*
X166756338Y-84213600D01*
X165745862Y-84213600D01*
X164812305Y-84600292D01*
X164097792Y-85314805D01*
X163711100Y-86248362D01*
X163711100Y-87258838D01*
X164096800Y-88190000D01*
X147389926Y-88190000D01*
X147320000Y-88176091D01*
X147250075Y-88190000D01*
X147250074Y-88190000D01*
X147042972Y-88231195D01*
X146808119Y-88388119D01*
X146651195Y-88622972D01*
X146596091Y-88900000D01*
X132196803Y-88900000D01*
X132904408Y-88192395D01*
X133291100Y-87258838D01*
X133291100Y-86248362D01*
X132904408Y-85314805D01*
X132189895Y-84600292D01*
X131256338Y-84213600D01*
X130245862Y-84213600D01*
X129312305Y-84600292D01*
X128597792Y-85314805D01*
X128211100Y-86248362D01*
X125170000Y-86248362D01*
X125170000Y-79485866D01*
X128175000Y-79485866D01*
X128175000Y-80534134D01*
X128576155Y-81502608D01*
X129317392Y-82243845D01*
X130285866Y-82645000D01*
X131334134Y-82645000D01*
X132302608Y-82243845D01*
X133043845Y-81502608D01*
X133445000Y-80534134D01*
X133445000Y-79485866D01*
X152940000Y-79485866D01*
X152940000Y-80534134D01*
X153341155Y-81502608D01*
X154082392Y-82243845D01*
X155050866Y-82645000D01*
X156099134Y-82645000D01*
X157067608Y-82243845D01*
X157808845Y-81502608D01*
X158127991Y-80732119D01*
X160433000Y-80732119D01*
X160433000Y-81287881D01*
X160645680Y-81801337D01*
X161038663Y-82194320D01*
X161552119Y-82407000D01*
X162107881Y-82407000D01*
X162621337Y-82194320D01*
X163014320Y-81801337D01*
X163227000Y-81287881D01*
X163227000Y-80732119D01*
X163014320Y-80218663D01*
X162621337Y-79825680D01*
X162356289Y-79715894D01*
X161830000Y-79189605D01*
X161303711Y-79715894D01*
X161038663Y-79825680D01*
X160645680Y-80218663D01*
X160433000Y-80732119D01*
X158127991Y-80732119D01*
X158210000Y-80534134D01*
X158210000Y-79485866D01*
X157926859Y-78802302D01*
X160420856Y-78802302D01*
X160448638Y-79357368D01*
X160607603Y-79741143D01*
X160849787Y-79810608D01*
X161650395Y-79010000D01*
X162009605Y-79010000D01*
X162810213Y-79810608D01*
X163052397Y-79741143D01*
X163239144Y-79217698D01*
X163211362Y-78662632D01*
X163052397Y-78278857D01*
X162810213Y-78209392D01*
X162009605Y-79010000D01*
X161650395Y-79010000D01*
X160849787Y-78209392D01*
X160607603Y-78278857D01*
X160420856Y-78802302D01*
X157926859Y-78802302D01*
X157808845Y-78517392D01*
X157321240Y-78029787D01*
X161029392Y-78029787D01*
X161830000Y-78830395D01*
X162630608Y-78029787D01*
X162561143Y-77787603D01*
X162037698Y-77600856D01*
X161482632Y-77628638D01*
X161098857Y-77787603D01*
X161029392Y-78029787D01*
X157321240Y-78029787D01*
X157067608Y-77776155D01*
X156099134Y-77375000D01*
X155050866Y-77375000D01*
X154082392Y-77776155D01*
X153341155Y-78517392D01*
X152940000Y-79485866D01*
X133445000Y-79485866D01*
X133043845Y-78517392D01*
X132302608Y-77776155D01*
X131334134Y-77375000D01*
X130285866Y-77375000D01*
X129317392Y-77776155D01*
X128576155Y-78517392D01*
X128175000Y-79485866D01*
X125170000Y-79485866D01*
X125170000Y-68580000D01*
X163585908Y-68580000D01*
X163701161Y-69159418D01*
X164029375Y-69650625D01*
X164327761Y-69850000D01*
X164029375Y-70049375D01*
X163701161Y-70540582D01*
X163585908Y-71120000D01*
X163701161Y-71699418D01*
X164029375Y-72190625D01*
X164520582Y-72518839D01*
X164953744Y-72605000D01*
X165246256Y-72605000D01*
X165679418Y-72518839D01*
X166170625Y-72190625D01*
X166498839Y-71699418D01*
X166614092Y-71120000D01*
X166498839Y-70540582D01*
X166170625Y-70049375D01*
X165872239Y-69850000D01*
X166170625Y-69650625D01*
X166498839Y-69159418D01*
X166614092Y-68580000D01*
X166498839Y-68000582D01*
X166170625Y-67509375D01*
X166148967Y-67494904D01*
X166309698Y-67428327D01*
X166488327Y-67249699D01*
X166585000Y-67016310D01*
X166585000Y-66325750D01*
X166426250Y-66167000D01*
X165227000Y-66167000D01*
X165227000Y-66187000D01*
X164973000Y-66187000D01*
X164973000Y-66167000D01*
X163773750Y-66167000D01*
X163615000Y-66325750D01*
X163615000Y-67016310D01*
X163711673Y-67249699D01*
X163890302Y-67428327D01*
X164051033Y-67494904D01*
X164029375Y-67509375D01*
X163701161Y-68000582D01*
X163585908Y-68580000D01*
X125170000Y-68580000D01*
X125170000Y-65063690D01*
X163615000Y-65063690D01*
X163615000Y-65754250D01*
X163773750Y-65913000D01*
X164973000Y-65913000D01*
X164973000Y-64713750D01*
X165227000Y-64713750D01*
X165227000Y-65913000D01*
X166426250Y-65913000D01*
X166585000Y-65754250D01*
X166585000Y-65063690D01*
X166488327Y-64830301D01*
X166309698Y-64651673D01*
X166076309Y-64555000D01*
X165385750Y-64555000D01*
X165227000Y-64713750D01*
X164973000Y-64713750D01*
X164814250Y-64555000D01*
X164123691Y-64555000D01*
X163890302Y-64651673D01*
X163711673Y-64830301D01*
X163615000Y-65063690D01*
X125170000Y-65063690D01*
X125170000Y-59690000D01*
X159826887Y-59690000D01*
X159938260Y-60249909D01*
X160255423Y-60724577D01*
X160730091Y-61041740D01*
X161148667Y-61125000D01*
X161431333Y-61125000D01*
X161849909Y-61041740D01*
X162324577Y-60724577D01*
X162641740Y-60249909D01*
X162753113Y-59690000D01*
X162641740Y-59130091D01*
X162324577Y-58655423D01*
X161849909Y-58338260D01*
X161431333Y-58255000D01*
X161148667Y-58255000D01*
X160730091Y-58338260D01*
X160255423Y-58655423D01*
X159938260Y-59130091D01*
X159826887Y-59690000D01*
X125170000Y-59690000D01*
X125170000Y-55574670D01*
X167375000Y-55574670D01*
X167375000Y-56185330D01*
X167608690Y-56749507D01*
X168040493Y-57181310D01*
X168604670Y-57415000D01*
X169215330Y-57415000D01*
X169779507Y-57181310D01*
X169955861Y-57004956D01*
X170011673Y-57139699D01*
X170190302Y-57318327D01*
X170423691Y-57415000D01*
X171164250Y-57415000D01*
X171323000Y-57256250D01*
X171323000Y-56007000D01*
X171577000Y-56007000D01*
X171577000Y-57256250D01*
X171735750Y-57415000D01*
X172476309Y-57415000D01*
X172709698Y-57318327D01*
X172888327Y-57139699D01*
X172985000Y-56906310D01*
X172985000Y-56165750D01*
X172826250Y-56007000D01*
X171577000Y-56007000D01*
X171323000Y-56007000D01*
X171303000Y-56007000D01*
X171303000Y-55753000D01*
X171323000Y-55753000D01*
X171323000Y-54503750D01*
X171577000Y-54503750D01*
X171577000Y-55753000D01*
X172826250Y-55753000D01*
X172985000Y-55594250D01*
X172985000Y-54853690D01*
X172888327Y-54620301D01*
X172709698Y-54441673D01*
X172476309Y-54345000D01*
X171735750Y-54345000D01*
X171577000Y-54503750D01*
X171323000Y-54503750D01*
X171164250Y-54345000D01*
X170423691Y-54345000D01*
X170190302Y-54441673D01*
X170011673Y-54620301D01*
X169955861Y-54755044D01*
X169779507Y-54578690D01*
X169215330Y-54345000D01*
X168604670Y-54345000D01*
X168040493Y-54578690D01*
X167608690Y-55010493D01*
X167375000Y-55574670D01*
X125170000Y-55574670D01*
X125170000Y-49530000D01*
X159826887Y-49530000D01*
X159938260Y-50089909D01*
X160255423Y-50564577D01*
X160607168Y-50799606D01*
X160477138Y-50853466D01*
X160073466Y-51257138D01*
X159855000Y-51784561D01*
X159855000Y-52355439D01*
X160073466Y-52882862D01*
X160477138Y-53286534D01*
X161004561Y-53505000D01*
X161575439Y-53505000D01*
X162102862Y-53286534D01*
X162506534Y-52882862D01*
X162725000Y-52355439D01*
X162725000Y-51784561D01*
X162506534Y-51257138D01*
X162102862Y-50853466D01*
X161972832Y-50799606D01*
X162324577Y-50564577D01*
X162641740Y-50089909D01*
X162753113Y-49530000D01*
X162641740Y-48970091D01*
X162324577Y-48495423D01*
X161849909Y-48178260D01*
X161431333Y-48095000D01*
X161148667Y-48095000D01*
X160730091Y-48178260D01*
X160255423Y-48495423D01*
X159938260Y-48970091D01*
X159826887Y-49530000D01*
X125170000Y-49530000D01*
X125170000Y-45414670D01*
X167375000Y-45414670D01*
X167375000Y-46025330D01*
X167608690Y-46589507D01*
X168040493Y-47021310D01*
X168604670Y-47255000D01*
X169215330Y-47255000D01*
X169779507Y-47021310D01*
X169955861Y-46844956D01*
X170011673Y-46979699D01*
X170190302Y-47158327D01*
X170423691Y-47255000D01*
X171164250Y-47255000D01*
X171323000Y-47096250D01*
X171323000Y-45847000D01*
X171577000Y-45847000D01*
X171577000Y-47096250D01*
X171735750Y-47255000D01*
X172476309Y-47255000D01*
X172709698Y-47158327D01*
X172888327Y-46979699D01*
X172985000Y-46746310D01*
X172985000Y-46005750D01*
X172826250Y-45847000D01*
X171577000Y-45847000D01*
X171323000Y-45847000D01*
X171303000Y-45847000D01*
X171303000Y-45593000D01*
X171323000Y-45593000D01*
X171323000Y-44343750D01*
X171577000Y-44343750D01*
X171577000Y-45593000D01*
X172826250Y-45593000D01*
X172985000Y-45434250D01*
X172985000Y-44693690D01*
X172888327Y-44460301D01*
X172709698Y-44281673D01*
X172476309Y-44185000D01*
X171735750Y-44185000D01*
X171577000Y-44343750D01*
X171323000Y-44343750D01*
X171164250Y-44185000D01*
X170423691Y-44185000D01*
X170190302Y-44281673D01*
X170011673Y-44460301D01*
X169955861Y-44595044D01*
X169779507Y-44418690D01*
X169215330Y-44185000D01*
X168604670Y-44185000D01*
X168040493Y-44418690D01*
X167608690Y-44850493D01*
X167375000Y-45414670D01*
X125170000Y-45414670D01*
X125170000Y-41624561D01*
X159855000Y-41624561D01*
X159855000Y-42195439D01*
X160073466Y-42722862D01*
X160477138Y-43126534D01*
X161004561Y-43345000D01*
X161575439Y-43345000D01*
X162102862Y-43126534D01*
X162506534Y-42722862D01*
X162725000Y-42195439D01*
X162725000Y-41624561D01*
X162506534Y-41097138D01*
X162102862Y-40693466D01*
X161575439Y-40475000D01*
X161004561Y-40475000D01*
X160477138Y-40693466D01*
X160073466Y-41097138D01*
X159855000Y-41624561D01*
X125170000Y-41624561D01*
X125170000Y-36405322D01*
X127405000Y-36405322D01*
X127405000Y-37254678D01*
X127730034Y-38039380D01*
X128330620Y-38639966D01*
X129115322Y-38965000D01*
X129964678Y-38965000D01*
X130749380Y-38639966D01*
X131349966Y-38039380D01*
X131675000Y-37254678D01*
X131675000Y-36405322D01*
X168045000Y-36405322D01*
X168045000Y-37254678D01*
X168370034Y-38039380D01*
X168970620Y-38639966D01*
X169755322Y-38965000D01*
X170604678Y-38965000D01*
X171389380Y-38639966D01*
X171989966Y-38039380D01*
X172315000Y-37254678D01*
X172315000Y-36405322D01*
X171989966Y-35620620D01*
X171389380Y-35020034D01*
X170604678Y-34695000D01*
X169755322Y-34695000D01*
X168970620Y-35020034D01*
X168370034Y-35620620D01*
X168045000Y-36405322D01*
X131675000Y-36405322D01*
X131349966Y-35620620D01*
X130749380Y-35020034D01*
X129964678Y-34695000D01*
X129115322Y-34695000D01*
X128330620Y-35020034D01*
X127730034Y-35620620D01*
X127405000Y-36405322D01*
X125170000Y-36405322D01*
X125170000Y-35604666D01*
X125232958Y-35106302D01*
X125401305Y-34681107D01*
X125670101Y-34311142D01*
X126022462Y-34019644D01*
X126436244Y-33824933D01*
X126918662Y-33732907D01*
X127011164Y-33730000D01*
X172675334Y-33730000D01*
X173173698Y-33792958D01*
G04 #@! TD*
M02*
